<?xml version="1.0" standalone="no"?>
<!DOCTYPE svg PUBLIC "-//W3C//DTD SVG 1.1//EN" "http://www.w3.org/Graphics/SVG/1.1/DTD/svg11.dtd" >
<svg xmlns="http://www.w3.org/2000/svg">
<metadata>Generated by IcoMoon</metadata>
<defs>
<font id="ntsicon" horiz-adv-x="1024">
<font-face units-per-em="1024" ascent="960" descent="-64" />
<missing-glyph horiz-adv-x="1024" />
<glyph unicode="&#x20;" horiz-adv-x="512" d="" />
<glyph unicode="&#xe900;" glyph-name="eye" horiz-adv-x="1536" d="M1526.24 500.381c-13.722 18.771-340.672 459.619-758.246 459.619s-744.54-440.849-758.247-459.601c-12.996-17.808-12.996-41.961 0-59.77 13.707-18.771 340.672-459.618 758.247-459.618s744.525 440.85 758.246 459.603c13.011 17.805 13.011 41.976 0 59.766zM767.994 82.285c-307.588 0-573.992 292.6-652.853 388.255 78.759 95.74 344.605 388.186 652.853 388.186 307.571 0 573.958-292.549 652.851-388.255-78.758-95.736-344.602-388.186-652.851-388.186zM768.013 774.328c-167.526 0-303.825-136.3-303.825-303.826s136.3-303.827 303.825-303.827c167.526 0 303.827 136.301 303.827 303.827s-136.301 303.826-303.827 303.826zM768.013 267.955c-111.693 0-202.548 90.86-202.548 202.547s90.861 202.548 202.548 202.548c111.686 0 202.547-90.861 202.547-202.548s-90.854-202.547-202.547-202.547z" />
<glyph unicode="&#xe901;" glyph-name="phone-volum" d="M982.272 217.836c-2.765 10.449-7.688 20.2-14.45 28.625-6.766 8.424-15.218 15.336-24.82 20.291l-201.567 104.511c-16.266 8.629-35.088 11.122-53.035 7.022s-33.824-14.521-44.733-29.357l-32.591-44.674c-1.674-2.324-4.139-3.954-6.928-4.584-2.792-0.63-5.715-0.217-8.224 1.158-47.927 27.29-91.806 61.152-130.359 100.6-39.424 38.581-73.265 82.483-100.539 130.438-1.376 2.513-1.787 5.439-1.157 8.231s2.258 5.258 4.578 6.932l44.484 32.612c14.828 10.917 25.242 26.803 29.338 44.761 4.1 17.958 1.611 36.792-7.014 53.067l-103.796 201.527c-4.985 9.619-11.939 18.079-20.41 24.828s-18.268 11.637-28.753 14.345c-10.485 2.707-21.422 3.174-32.099 1.369s-20.854-5.841-29.868-11.845l-126.611-84.785c-17.778-11.845-32.134-28.156-41.628-47.3s-13.795-40.448-12.47-61.779c1.676-36.065 6.528-71.912 14.502-107.123 34.382-132.72 117.322-269.192 232.527-384.628 115.205-115.44 251.755-198.105 384.395-232.184 35.19-7.975 71.014-12.832 107.055-14.509h8.149c19.885 0.043 39.456 4.955 57.009 14.304s32.551 22.855 43.693 39.337l84.405 126.688c6.093 8.999 10.216 19.188 12.095 29.893 1.883 10.705 1.481 21.689-1.178 32.228zM917.094 192.075l-83.921-126.85c-5.569-8.227-13.19-14.856-22.107-19.232s-18.822-6.345-28.731-5.715c-31.965 1.477-63.748 5.675-95 12.552-121.561 31.634-247.355 108.103-354.411 215.713s-183.805 232.995-215.417 354.63c-6.93 31.266-11.182 63.067-12.71 95.057-0.651 9.897 1.309 19.792 5.685 28.692s11.013 16.492 19.246 22.016l126.611 84.459c1.927 1.291 4.198 1.973 6.518 1.957h3.096c1.605-0.419 3.102-1.172 4.394-2.212s2.349-2.342 3.102-3.821l104.287-201.69c1.296-2.501 1.664-5.381 1.037-8.128s-2.206-5.182-4.459-6.873l-44.485-32.61c-15.085-11.229-25.536-27.599-29.379-46.013-3.843-18.416-0.812-37.604 8.522-53.933 30.16-52.752 67.446-101.088 110.805-143.648 42.528-43.386 90.837-80.695 143.557-110.872 16.321-9.338 35.497-12.371 53.902-8.527s34.761 14.304 45.985 29.397l32.591 44.674c1.69 2.257 4.12 3.836 6.865 4.462s5.624 0.26 8.125-1.036l201.567-104.353c1.473-0.772 2.773-1.847 3.805-3.151 1.036-1.308 1.784-2.816 2.198-4.431 0.417-1.611 0.488-3.296 0.213-4.939-0.28-1.642-0.898-3.21-1.816-4.596l0.327-0.981zM753.562 511.015h63.015c-0.075 66.828-26.656 130.897-73.909 178.152-47.258 47.254-111.325 73.835-178.152 73.91v-63.015c50.121-0.050 98.178-19.983 133.62-55.426s55.375-83.5 55.426-133.621zM911.1 511.015h63.015c-0.126 108.594-43.319 212.705-120.107 289.493s-180.897 119.982-289.493 120.107v-63.015c91.884-0.108 179.976-36.658 244.953-101.632 64.973-64.974 101.522-153.066 101.632-244.953z" />
<glyph unicode="&#xe902;" glyph-name="phone" d="M982.272 217.836c-2.765 10.449-7.688 20.2-14.45 28.625-6.766 8.424-15.218 15.336-24.82 20.291l-201.567 104.511c-16.266 8.629-35.088 11.122-53.035 7.022s-33.824-14.521-44.733-29.357l-32.591-44.674c-1.674-2.324-4.139-3.954-6.928-4.584-2.792-0.63-5.715-0.217-8.224 1.158-47.927 27.29-91.806 61.152-130.359 100.6-39.424 38.581-73.265 82.483-100.539 130.438-1.376 2.513-1.787 5.439-1.157 8.231s2.258 5.258 4.578 6.932l44.484 32.612c14.828 10.917 25.242 26.803 29.338 44.761 4.1 17.958 1.611 36.792-7.014 53.067l-103.796 201.527c-4.985 9.619-11.939 18.079-20.41 24.828s-18.268 11.637-28.753 14.345c-10.485 2.707-21.422 3.174-32.099 1.369s-20.854-5.841-29.868-11.845l-126.611-84.785c-17.778-11.845-32.134-28.156-41.628-47.3s-13.795-40.448-12.47-61.779c1.676-36.065 6.528-71.912 14.502-107.123 34.382-132.72 117.322-269.192 232.527-384.628 115.205-115.44 251.755-198.105 384.395-232.184 35.19-7.975 71.014-12.832 107.055-14.509h8.149c19.885 0.043 39.456 4.955 57.009 14.304s32.551 22.855 43.693 39.337l84.405 126.688c6.093 8.999 10.216 19.188 12.095 29.893 1.883 10.705 1.481 21.689-1.178 32.228zM917.094 192.075l-83.921-126.85c-5.569-8.227-13.19-14.856-22.107-19.232s-18.822-6.345-28.731-5.715c-31.965 1.477-63.748 5.675-95 12.552-121.561 31.634-247.355 108.103-354.411 215.713s-183.805 232.995-215.417 354.63c-6.93 31.266-11.182 63.067-12.71 95.057-0.651 9.897 1.309 19.792 5.685 28.692s11.013 16.492 19.246 22.016l126.611 84.459c1.927 1.291 4.198 1.973 6.518 1.957h3.096c1.605-0.419 3.102-1.172 4.394-2.212s2.349-2.342 3.102-3.821l104.287-201.69c1.296-2.501 1.664-5.381 1.037-8.128s-2.206-5.182-4.459-6.873l-44.485-32.61c-15.085-11.229-25.536-27.599-29.379-46.013-3.843-18.416-0.812-37.604 8.522-53.933 30.16-52.752 67.446-101.088 110.805-143.648 42.528-43.386 90.837-80.695 143.557-110.872 16.321-9.338 35.497-12.371 53.902-8.527s34.761 14.304 45.985 29.397l32.591 44.674c1.69 2.257 4.12 3.836 6.865 4.462s5.624 0.26 8.125-1.036l201.567-104.353c1.473-0.772 2.773-1.847 3.805-3.151 1.036-1.308 1.784-2.816 2.198-4.431 0.417-1.611 0.488-3.296 0.213-4.939-0.28-1.642-0.898-3.21-1.816-4.596l0.327-0.981z" />
<glyph unicode="&#xe903;" glyph-name="file-vb" horiz-adv-x="768" d="M711.676 433.412c7.543 0 13.658 6.114 13.658 13.658v329.368c0 3.412-1.353 7.010-3.998 9.655l-140.041 140.040c-2.385 2.383-5.871 4-9.655 4h-155.776c-7.543 0-13.655-6.114-13.655-13.655s6.112-13.656 13.655-13.656h142.118v-87.907c0-28.746 23.39-52.132 52.134-52.132h87.906v-315.713c0-7.543 6.114-13.658 13.653-13.658zM610.116 790.094c-13.687 0-24.823 11.134-24.823 24.821v68.596l93.419-93.417h-68.595zM592.299 360.435h-401.789c-7.543 0-13.655-6.114-13.655-13.653 0-7.543 6.112-13.658 13.655-13.658h401.789c7.543 0 13.653 6.114 13.653 13.658 0 7.539-6.11 13.653-13.653 13.653zM592.299 464.017h-401.789c-7.543 0-13.655-6.11-13.655-13.653s6.112-13.658 13.655-13.658h401.789c7.543 0 13.653 6.114 13.653 13.658s-6.11 13.653-13.653 13.653zM592.299 256.862h-401.789c-7.543 0-13.655-6.11-13.655-13.653s6.112-13.658 13.655-13.658h401.789c7.543 0 13.653 6.114 13.653 13.658s-6.11 13.653-13.653 13.653zM592.235 567.602h-401.787c-7.543 0-13.656-6.112-13.656-13.655s6.112-13.654 13.656-13.654h401.787c7.543 0 13.653 6.111 13.653 13.654s-6.11 13.655-13.653 13.655zM391.901 671.185h-208.039c-3.906 0-7.071-6.112-7.071-13.656s3.165-13.655 7.071-13.655h208.039c3.906 0 7.070 6.112 7.070 13.655s-3.165 13.656-7.070 13.656zM421.327 930.133h-326.526c-28.746 0-52.134-23.386-52.134-52.132v-827.958c0-28.749 23.388-52.134 52.134-52.134h578.403c28.745 0 52.13 23.386 52.13 52.134v401.233c0 7.543-4.233 2.731-11.776 2.731s-15.535 12.096-15.535 4.553v-408.521c0-13.687-11.136-24.819-24.819-24.819h-578.403c-13.688 0-24.822 11.132-24.822 24.819v827.962c0 13.687 11.136 24.82 24.822 24.82h330.167c7.544 0-3.641 5.204-3.641 12.745s7.542 14.566 0 14.566z" />
<glyph unicode="&#xe904;" glyph-name="search-eye" horiz-adv-x="973" d="M570.25 250.844l51.922-51.922-3.85-3.845c-3.845-3.845-5.765-7.69-5.765-13.46s1.92-9.615 5.765-13.46l138.46-138.455c42.307-42.307 111.534-42.307 153.841 0 42.301 42.307 42.301 111.534 0 153.841l-138.46 138.455c-7.69 7.69-19.231 7.69-26.921 0l-3.845-3.845-49.997 49.997c76.918 119.226 74.998 271.143-1.925 388.447-149.996 224.991-480.751 221.145-621.13-19.23-63.459-109.612-63.459-244.221 0-353.831 107.688-188.457 334.603-234.609 501.906-132.69zM881.777 154.696c26.921-26.921 26.921-71.153 0-98.074s-73.078-26.921-98.074 0l-124.995 124.995 98.074 98.074 124.995-124.995zM649.093 225.843l-46.152 46.157c23.076 17.306 44.227 38.456 63.457 61.532l46.152-46.152-63.457-61.537zM99.112 716.212c123.073 211.531 419.216 223.069 555.746 17.307 71.153-105.765 71.153-244.221 0-349.985-136.53-205.763-432.673-194.227-555.746 17.306-55.767 98.073-55.767 219.222 0 315.372zM381.791 385.444c101.919 0 198.069 55.767 280.757 161.535 5.77 7.692 5.77 17.307 0 23.076-82.688 105.765-180.761 161.533-282.68 161.533s-198.069-55.768-280.759-161.533c-3.846-5.769-3.846-15.384 0-23.076 84.613-105.768 182.686-161.535 282.682-161.535zM381.791 693.127c84.613 0 169.223-46.152 242.301-134.61-73.078-88.458-155.766-134.611-242.301-134.611-84.612 0-169.224 46.153-242.298 134.611 73.074 88.458 155.763 134.61 242.298 134.61zM381.808 470.058c48.075 0 88.458 40.383 88.458 88.458s-40.383 88.458-88.458 88.458c-48.075 0-88.458-40.383-88.458-88.458s40.383-88.458 88.458-88.458zM381.808 608.515c26.922 0 49.998-23.076 49.998-49.998s-23.076-49.998-49.998-49.998c-26.922 0-49.998 23.076-49.998 49.998s23.076 49.998 49.998 49.998z" />
<glyph unicode="&#xe905;" glyph-name="fill" d="M932.506 364.093c0-16.543-13.476-30.013-30.013-30.013h-223.478v223.45c0 38.773-31.534 70.31-70.308 70.31h-223.451v223.45c0 16.566 13.472 30.013 30.038 30.013h487.198c16.538 0 30.013-13.448 30.013-30.013v-487.197zM638.746 70.333c0-16.563-13.476-30.039-30.039-30.039h-487.197c-16.542 0-30.013 13.476-30.013 30.039v487.197c0 16.542 13.471 30.014 30.013 30.014h487.197c16.563 0 30.039-13.472 30.039-30.014v-487.197zM902.492 921.6h-487.198c-38.773 0-70.31-31.537-70.31-70.31v-223.45h-223.474c-38.749 0-70.31-31.537-70.31-70.31v-487.197c0-38.774 31.561-70.308 70.31-70.308h487.197c38.774 0 70.308 31.534 70.308 70.308v223.452h223.478c38.748 0 70.308 31.534 70.308 70.308v487.197c0 38.773-31.56 70.31-70.308 70.31z" />
<glyph unicode="&#xe906;" glyph-name="online-investigation" d="M969.416 774.905l-186.097 143.838c-4.137 3.191-9.718 3.755-14.403 1.456-4.685-2.301-7.654-7.065-7.654-12.284v-69.217c-82.217-14.73-156.928-53.853-216.704-113.609-49.105-49.105-84.711-109.243-103.848-175.024-50.357 42.52-109.903 72.155-173.967 86.474v60.827c0 5.218-2.969 9.985-7.652 12.284-4.686 2.299-10.273 1.733-14.402-1.456l-84.641-65.42c-5.98-4.622-7.080-13.216-2.46-19.197 4.623-5.979 13.216-7.081 19.197-2.46l62.586 48.374v-44.073c0-6.551 4.642-12.183 11.072-13.433 68.097-13.24 131.144-44.918 182.826-91.768-5.847-27.802-8.841-56.4-8.841-85.147v-79.058c-7.7 15.846-16.968 31.037-27.777 45.409-34.873 46.377-84.445 81.22-139.587 98.115-4.146 1.268-8.656 0.502-12.145-2.082-3.49-2.58-5.549-6.664-5.549-11.003v-48.888l-150.033 115.964 87.447 67.589c5.979 4.622 7.037 12.925 2.415 18.906s-9.759 10.011-15.74 5.389l-104.87-81.056c-3.352-2.591-5.315-6.591-5.315-10.828s1.963-8.237 5.315-10.828l186.098-143.839c4.133-3.195 9.716-3.758 14.402-1.454 4.686 2.299 7.652 7.066 7.652 12.283v57.495c42.515-16.734 80.395-45.452 108.037-82.209 32.483-43.192 49.651-94.602 49.651-148.664v-222.628c0-7.557 6.126-13.686 13.685-13.686h134.895c7.562 0 13.686 6.129 13.686 13.686v152.525c0 7.557-6.124 13.686-13.686 13.686-7.557 0-13.681-6.129-13.681-13.686v-138.839h-107.53v407.7c0 29.383 3.309 58.592 9.831 86.823 16.010 69.367 51.378 132.938 102.281 183.839 58.414 58.395 132.091 95.676 213.064 107.814 6.702 1.004 11.658 6.758 11.658 13.534v52.961l150.036-115.965-150.036-115.964v41.665c0 4.178-1.91 8.127-5.181 10.721-3.277 2.597-7.557 3.555-11.622 2.602-59.423-13.911-113.352-47.954-151.859-95.859-39.107-48.647-60.641-109.792-60.641-172.17v-275.763c0-7.557 6.124 9.718 13.681 9.718 7.562 0 13.691-7.557 13.691 0v266.045c0 56.164 19.389 111.219 54.6 155.024 31.027 38.599 73.144 67.204 119.962 81.778v-51.635c0-5.218 2.97-9.985 7.654-12.283 4.685-2.301 10.276-1.734 14.403 1.456l186.097 143.838c3.354 2.591 5.315 6.59 5.315 10.827s-1.961 8.237-5.315 10.828z" />
<glyph unicode="&#xe907;" glyph-name="export" horiz-adv-x="1078" d="M444.834 132.446c-47.875 0-87.309 39.435-87.309 87.309v163.7c-0.054 3.859 9.474 0.059 10.912 3.638s-0.283-8.806 2.425-6.063c2.708 2.749 4.93 4.576 8.488 6.063 3.558 1.493 3.421-23.39 7.277-23.39s7.675 16.395 11.233 14.902c3.558-1.487 6.785 16.088 9.493 13.339 2.708-2.743 1.561 9.642 2.999 6.063s5.433 9.922 5.378 6.063v-184.315c0-16.422 12.685-29.103 29.103-29.103h174.616c16.422 0 29.103 12.681 29.103 29.103v368.636c0 7.718 3.067 15.12 8.526 20.578s12.859 8.524 20.577 8.525h89.282l-213.272 233.961c-11.851 12.997-31.198 12.996-43.048 0l-213.27-233.961h89.279c7.718-0.001 15.12-3.068 20.578-8.525s8.524-12.86 8.525-20.578v-213.425c0.054-3.853-0.658-7.685-2.096-11.264s-3.573-6.834-6.281-9.582c-2.708-2.743-5.935-4.926-9.493-6.413s-7.377-2.253-11.233-2.253c-3.857 0-7.675 0.765-11.233 2.253s-6.785 3.67-9.492 6.413c-2.708 2.749-4.843 6.004-6.281 9.582s-2.15 7.411-2.096 11.264v184.322h-60.176c-24.163 0-44.722 15.329-53.28 34.711s-6.010 44.86 10.269 62.716l213.271 233.961c34.321 37.642 94.746 37.642 129.071 0l213.267-233.961c16.282-17.855 18.825-43.333 10.272-62.716-8.558-19.383-29.119-34.711-53.28-34.711h-60.179v-339.533c0-47.875-39.435-87.309-87.309-87.309h-174.616zM82.546 269.35c-7.712-0.119-15.060-3.298-20.432-8.833s-8.327-12.972-8.216-20.685v-155.217c0-47.869 39.443-87.309 87.309-87.309h795.484c47.864 0 87.304 39.44 87.304 87.309v155.217c0.059 3.853-0.658 7.685-2.091 11.264-1.439 3.579-3.573 6.834-6.284 9.582-2.706 2.743-5.934 4.926-9.491 6.413s-7.378 2.253-11.237 2.253c-3.853 0-7.675-0.765-11.232-2.253s-6.785-3.67-9.491-6.413c-2.711-2.749-4.845-6.004-6.284-9.582-1.434-3.579-2.15-7.411-2.091-11.264v-155.217c0-16.627-12.477-29.103-29.103-29.103h-795.484c-16.627 0-29.103 12.477-29.103 29.103v155.217c0.056 3.891-0.671 7.761-2.137 11.366-1.466 3.611-3.642 6.888-6.398 9.642s-6.037 4.926-9.648 6.387c-3.611 1.461-7.479 2.183-11.374 2.123z" />
<glyph unicode="&#xe908;" glyph-name="import" horiz-adv-x="1078" d="M444.834 918.905c-47.875 0-87.309-39.434-87.309-87.309v-163.705c-0.054-3.856 9.474-0.059 10.912-3.638s-0.283 8.81 2.425 6.063c2.708-2.746 4.93-4.575 8.488-6.063s3.421 23.39 7.277 23.39c3.857 0 7.675-16.39 11.233-14.902s6.785-16.085 9.493-13.339c2.708 2.746 1.561-9.642 2.999-6.063s5.433-9.919 5.378-6.063v184.319c0 16.418 12.685 29.103 29.103 29.103h174.616c16.422 0 29.103-12.685 29.103-29.103v-368.638c0-7.718 3.067-15.12 8.526-20.578s12.859-8.524 20.577-8.525h89.282l-213.272-233.959c-11.851-12.999-31.198-12.999-43.048 0l-213.27 233.959h89.279c7.718 0.001 15.12 3.068 20.578 8.525s8.524 12.86 8.525 20.578v213.422c0.054 3.857-0.658 7.685-2.096 11.264s-3.573 6.836-6.281 9.582c-2.708 2.746-5.935 4.928-9.493 6.416s-7.377 2.255-11.233 2.255c-3.857 0-7.675-0.766-11.233-2.255s-6.785-3.67-9.492-6.416c-2.708-2.746-4.843-6.003-6.281-9.582s-2.15-7.407-2.096-11.264v-184.319h-60.176c-24.163 0-44.722-15.329-53.28-34.711s-6.010-44.861 10.269-62.716l213.271-233.962c34.321-37.64 94.746-37.64 129.071 0l213.267 233.962c16.282 17.855 18.825 43.334 10.272 62.716-8.558 19.383-29.119 34.711-53.28 34.711h-60.179v339.535c0 47.875-39.435 87.309-87.309 87.309h-174.616zM82.546 269.35c-7.712-0.119-15.060-3.298-20.432-8.833s-8.327-12.972-8.216-20.685v-155.217c0-47.869 39.443-87.309 87.309-87.309h795.484c47.864 0 87.304 39.44 87.304 87.309v155.217c0.059 3.853-0.658 7.685-2.091 11.264-1.439 3.579-3.573 6.834-6.284 9.582-2.706 2.743-5.934 4.926-9.491 6.413s-7.378 2.253-11.237 2.253c-3.853 0-7.675-0.765-11.232-2.253s-6.785-3.67-9.491-6.413c-2.711-2.749-4.845-6.004-6.284-9.582-1.434-3.579-2.15-7.411-2.091-11.264v-155.217c0-16.627-12.477-29.103-29.103-29.103h-795.484c-16.627 0-29.103 12.477-29.103 29.103v155.217c0.056 3.891-0.671 7.761-2.137 11.366-1.466 3.611-3.642 6.888-6.398 9.642s-6.037 4.926-9.648 6.387c-3.611 1.461-7.479 2.183-11.374 2.123z" />
<glyph unicode="&#xe909;" glyph-name="history" d="M507.36 419.040l191.998-143.999c14.148-10.61 34.196-7.743 44.8 6.4 10.61 14.143 7.748 34.19-6.4 44.8l-177.758 134.559v272c0 17.68-14.32 32-32 32s-32-14.32-32-32v-288c0-10.624 4.448-20.192 11.36-25.76zM544.048 940.8c-234.224 0-434.24-169.056-473.28-400l-12.16 18.080c-9.904 14.672-29.808 18.544-44.48 8.64s-18.544-29.808-8.64-44.48l64-96c5.264-8 13.84-13.232 23.36-14.24h3.2c8.48 0.032 16.592 3.424 22.56 9.44l80.001 80c12.496 12.496 12.496 32.784 0 45.28s-32.784 12.496-45.28 0l-19.84-20c36.848 226.784 250.56 380.736 477.328 343.888 226.77-36.848 380.752-250.544 343.905-477.327-32.722-201.375-206.655-349.315-410.673-349.281-128.672-2.338-250.368 58.368-325.92 162.56-10.256 14.399-30.24 17.778-44.64 7.521s-17.776-30.242-7.52-44.641c87.488-121.151 228.672-191.886 378.080-189.44 265.106 0 480.003 214.898 480.003 480 0 265.104-214.898 480-480.003 480z" />
<glyph unicode="&#xe90a;" glyph-name="group-user" horiz-adv-x="1408" d="M317.123 474.915c-81.885 0-148.498 66.008-148.498 147.117 0 81.119 66.612 147.128 148.498 147.128 81.875 0 148.478-65.999 148.478-147.128 0-81.119-66.603-147.117-148.478-147.117zM317.123 727.869c-59.123 0-107.208-47.48-107.208-105.837 0-58.347 48.084-105.827 107.208-105.827 59.103 0 107.188 47.48 107.188 105.827 0 58.357-48.085 105.837-107.188 105.837zM376.934 67.578h-258.972c-29.758 0-53.962 24.058-53.962 53.619v67.533c0 138.246 113.579 250.726 253.196 250.726 54.909 0 107.178-17.137 151.109-49.546 9.173-6.774 11.129-19.697 4.355-28.881-6.774-9.163-19.688-11.119-28.871-4.355-36.784 27.137-80.554 41.492-126.593 41.492-116.845 0-211.906-93.961-211.906-209.436v-67.533c0-6.79 5.686-12.326 12.671-12.326h258.982c11.391 0 20.645-9.242 20.645-20.646 0-11.392-9.254-20.646-20.655-20.646zM1290.010 83.2h-258.97c-11.392 0-20.646 9.242-20.646 20.646 0 11.392 9.254 20.646 20.646 20.646h258.982c6.982 0 12.666 5.523 12.666 12.314v67.533c0 115.494-95.059 209.436-211.904 209.436-48.8 0-96.442-16.804-134.15-47.329-8.851-7.167-21.85-5.807-29.037 3.054-7.162 8.861-5.811 21.865 3.066 29.043 45.030 36.442 101.894 56.522 160.122 56.522 139.61 0 253.184-112.47 253.184-250.726v-67.533c0-29.555-24.198-53.606-53.958-53.606zM1090.854 485.118c-81.875 0-148.48 65.998-148.48 147.117s66.605 147.127 148.48 147.127c81.882 0 148.499-65.998 148.499-147.127s-66.624-147.117-148.499-147.117zM1090.854 738.072c-59.104 0-107.187-47.48-107.187-105.837s48.083-105.827 107.187-105.827c59.123 0 107.206 47.47 107.206 105.827s-48.096 105.837-107.206 105.837zM984.166 0.403h-560.406c-37.228 0-67.51 30.061-67.51 67.014v94.982c0 189.818 155.968 344.244 347.711 344.244s347.712-154.426 347.712-344.244v-94.982c0-36.954-30.278-67.014-67.507-67.014zM703.962 465.343c-168.961 0-306.421-135.91-306.421-302.956v-94.976c0-14.182 11.764-25.728 26.22-25.728h560.394c14.458 0 26.221 11.546 26.221 25.728v94.976c0.013 167.046-137.453 302.956-306.413 302.956zM696.934 530.775c-105.204 0-190.81 84.788-190.81 189.023 0 104.224 85.595 189.002 190.81 189.002 105.222 0 190.816-84.788 190.816-189.012 0-104.234-85.606-189.012-190.816-189.012zM696.934 867.51c-82.442 0-149.519-66.27-149.519-147.722 0-81.462 67.076-147.732 149.519-147.732 82.445 0 149.523 66.27 149.523 147.732 0 81.452-67.078 147.722-149.523 147.722z" />
<glyph unicode="&#xe90b;" glyph-name="category" d="M800 972.8h-576c-123.712 0-224-100.288-224-224v-576c0-123.711 100.288-224 224-224h576c123.711 0 224 100.289 224 224v576c0 123.712-100.289 224-224 224zM960 172.8c0-88.366-71.634-160-160-160h-576c-88.366 0-160 71.634-160 160v576c0 88.366 71.634 160 160 160h576c88.366 0 160-71.634 160-160v-576zM320 748.8h-64c-17.674 0-32-14.326-32-32v-64c0-17.674 14.326-32 32-32h64c17.674 0 32 14.326 32 32v64c0 17.674-14.326 32-32 32zM320 524.8h-64c-17.674 0-32-14.326-32-32v-64c0-17.674 14.326-32 32-32h64c17.674 0 32 14.326 32 32v64c0 17.674-14.326 32-32 32zM320 300.8h-64c-17.674 0-32-14.325-32-32v-64c0-17.675 14.326-32 32-32h64c17.674 0 32 14.325 32 32v64c0 17.675-14.326 32-32 32zM800 716.8h-384v-64h384v64zM800 492.8h-384v-64h384v64zM800 268.8h-384v-64h384v64z" />
<glyph unicode="&#xe90c;" glyph-name="unit" d="M506.624 189.471c-4.915 0-9.83 1.884-13.594 5.606l-246.797 246.799c-7.219 7.219-7.526 18.775-0.768 26.379l184.973 207.206c129.29 151.258 339.84 249.139 523.433 246.029 10.25-0.23 18.509-8.486 18.739-18.739 4.26-183.706-94.735-394.138-246.38-523.697l-206.858-184.704c-3.61-3.267-8.218-4.879-12.749-4.879zM286.208 456.197l221.146-221.143 193.651 172.877c138.47 118.347 230.441 306.968 233.283 475.198-168.233-2.803-356.818-94.771-474.934-232.934l-173.146-193.997zM580.224 48.927c-1.843 0-3.727 0.266-5.494 0.845-6.912 2.304-12.595 7.603-13.594 14.822l-26.342 183.818c-1.495 10.486 5.801 20.198 16.282 21.734 10.486 1.654 20.198-5.76 21.734-16.282l20.582-143.616c67.277 80.451 104.678 182.441 104.678 286.428 0 10.598 8.602 19.2 19.2 19.2s19.2-8.602 19.2-19.2c0-127.222-51.533-251.75-141.389-341.571-3.84-3.84-9.446-6.18-14.858-6.18zM302.415 483.381c-0.883 0-1.805 0.038-2.726 0.192l-183.821 26.342c-7.219 1.037-13.248 6.067-15.514 13.018-2.266 6.912-0.422 14.554 4.762 19.661 91.123 91.123 215.617 142.656 342.836 142.656 10.598 0 19.2-8.602 19.2-19.2s-8.602-19.2-19.2-19.2c-104.486 0-207.014-37.747-286.618-104.64l143.809-20.621c10.483-1.536 17.779-11.213 16.282-21.734-1.421-9.562-9.638-16.474-19.008-16.474zM709.14 561.942c-24.612 0-49.188 9.37-67.891 28.070-37.402 37.44-37.402 98.342 0 135.782 37.443 37.44 98.345 37.44 135.782 0 37.402-37.44 37.402-98.342 0-135.782-18.739-18.739-43.315-28.070-67.891-28.070zM709.14 715.465c-14.746 0-29.527-5.606-40.74-16.819-22.426-22.464-22.426-59.021 0-81.485 22.461-22.426 59.018-22.387 81.485 0 22.426 22.464 22.426 59.021 0 81.485-11.254 11.174-25.999 16.819-40.745 16.819zM763.438 603.568v0zM70.408-0.005c-5.030 0-9.907 1.961-13.594 5.606-4.992 4.992-6.835 12.329-4.8 19.087 6.298 21.002 62.707 206.628 103.795 247.716 46.272 46.275 121.574 46.31 167.846 0 46.273-46.269 46.273-121.574 0-167.844-41.088-41.088-226.714-97.5-247.718-103.798-1.843-0.497-3.686-0.768-5.53-0.768zM239.752 268.759c-20.582 0-41.126-7.834-56.794-23.465-22.157-22.195-59.021-121.303-83.366-196.915 75.571 24.346 174.72 61.21 196.877 83.369 31.297 31.293 31.297 82.253 0 113.546-15.629 15.631-36.173 23.465-56.717 23.465z" />
<glyph unicode="&#xe90d;" glyph-name="basic-investigation" d="M972.805 902.4c0 11.52-7.68 19.2-19.2 19.2h-161.28c-11.52 0-19.2-7.68-19.2-19.2s7.68-19.2 19.2-19.2h142.080v-142.080c0-11.52 7.68-19.2 19.2-19.2s19.2 7.68 19.2 19.2v161.28zM51.2 19.195c0-11.52 7.68-19.2 19.2-19.2h161.28c11.52 0 19.2 7.68 19.2 19.2s-7.68 19.2-19.2 19.2h-142.080v142.080c0 11.52-7.68 19.2-19.2 19.2s-19.2-7.68-19.2-19.2v-161.28zM231.68 921.6h-161.28c-11.52 0-19.2-7.68-19.2-19.2v-161.28c0-11.52 7.68-19.2 19.2-19.2s19.2 7.68 19.2 19.2v142.080h142.080c11.52 0 19.2 7.68 19.2 19.2s-9.6 19.2-19.2 19.2zM972.805 180.475c0 11.52-7.68 19.2-19.2 19.2s-19.2-7.68-19.2-19.2v-142.080h-142.080c-11.52 0-19.2-7.68-19.2-19.2s7.68-19.2 19.2-19.2h161.28c11.52 0 19.2 7.68 19.2 19.2v161.28zM74.245 437.765c-5.76-5.76-5.76-15.36 0-23.040 117.12-161.28 270.72-249.6 437.76-249.6s322.56 88.32 437.76 251.52c5.76 5.76 5.76 15.36 0 23.040-115.2 161.282-270.72 249.603-435.84 249.603-167.040 0-322.56-90.241-439.68-251.523zM512.005 650.888c149.76 0 289.92-78.721 397.44-222.723-107.52-144-249.6-222.72-399.359-222.72-149.761 0-289.921 78.72-397.441 222.72 109.44 142.082 251.521 222.723 399.36 222.723zM511.995 272.645c86.399 0 155.519 69.12 155.519 155.52 0 86.403-69.12 155.523-155.519 155.523s-155.521-69.12-155.521-155.523c0-86.4 69.121-155.52 155.521-155.52zM511.995 545.288c65.279 0 117.119-51.841 117.119-117.123 0-65.28-51.84-117.12-117.119-117.12s-117.121 51.84-117.121 117.12c0 65.282 51.841 117.123 117.121 117.123z" />
<glyph unicode="&#xe90e;" glyph-name="home" horiz-adv-x="1081" d="M999.168 527.409c-0.034 0.023-0.057 0.055-0.080 0.078l-417.752 417.695c-17.807 17.812-41.481 27.617-66.664 27.617s-48.857-9.805-66.671-27.617l-417.534-417.484c-0.141-0.141-0.289-0.289-0.422-0.43-36.566-36.774-36.504-96.437 0.18-133.12 16.76-16.765 38.887-26.465 62.553-27.489 0.969-0.097 1.938-0.142 2.914-0.142h16.642v-307.388c0-60.837 49.505-110.33 110.347-110.33h163.438c16.572 0 30.003 13.437 30.003 29.998v241.004c0 27.756 22.588 50.335 50.349 50.335h96.4c27.759 0 50.338-22.579 50.338-50.335v-241.004c0-16.56 13.431-29.998 30.003-29.998h163.442c60.848 0 110.347 49.493 110.347 110.33v307.388h15.44c25.173 0 48.845 9.808 66.668 27.625 36.722 36.735 36.739 96.508 0.057 133.266zM956.678 436.566c-6.474-6.477-15.087-10.047-24.235-10.047h-45.443c-16.572 0-30.003-13.43-30.003-29.998v-337.391c0-27.75-22.579-50.33-50.341-50.33h-133.439v211.001c0 60.837-49.493 110.336-110.345 110.336h-96.4c-60.85 0-110.355-49.499-110.355-110.336v-211.001h-133.436c-27.753 0-50.341 22.579-50.341 50.33v337.391c0 16.568-13.431 29.998-30.003 29.998h-44.661c-0.469 0.031-0.93 0.055-1.406 0.063-8.938 0.156-17.322 3.703-23.604 9.992-13.361 13.36-13.361 35.102 0 48.469 0.008 0 0.008 0.008 0.015 0.016l0.024 0.023 417.737 417.679c6.469 6.477 15.072 10.039 24.229 10.039 9.149 0 17.752-3.562 24.229-10.039l417.645-417.593c0.063-0.063 0.131-0.125 0.193-0.188 13.289-13.383 13.266-35.078-0.063-48.414z" />
<glyph unicode="&#xe90f;" glyph-name="thematic" horiz-adv-x="922" d="M73.036 346.89c-13.538 0-24.566-11.023-24.566-24.566l0.002-277.627c0-13.563 11.023-24.586 24.562-24.586h775.539c13.563 0 24.561 11.023 24.561 24.586v277.627c0 13.542-11.003 24.566-24.561 24.566h-221.563l-40.975-72.33c-1.782-3.144-5.135-5.094-8.76-5.094h-232.938c-3.627 0-6.984 1.951-8.765 5.094l-40.974 72.33h-221.56zM848.573-0.005h-775.537c-24.649 0-44.686 20.055-44.686 44.703v277.627c0 24.653 20.037 44.687 44.684 44.687h227.434c3.604 0 6.954-1.951 8.736-5.094l40.978-72.33h221.245l40.975 72.33c1.782 3.144 5.135 5.094 8.76 5.094h227.41c24.648 0 44.682-20.035 44.682-44.687l0.005-277.627c0-24.648-20.040-44.703-44.687-44.703zM553.81 269.476c-5.555 0-10.066 4.5-10.066 10.056v606.186c0 8.678-7.060 15.762-15.759 15.762h-134.348c-8.676 0-15.762-7.084-15.762-15.762l0.003-606.186c0-5.555-4.488-10.056-10.041-10.056-5.572 0-10.060 4.5-10.060 10.056l0.002 606.186c0 19.787 16.073 35.882 35.859 35.882h134.348c19.789 0 35.881-16.096 35.881-35.882l0.005-606.186c0-5.555-4.511-10.056-10.061-10.056zM279.735 346.895c-5.555 0-10.062 4.506-10.062 10.061l0.002 528.761c0 8.678-7.065 15.762-15.764 15.762h-134.345c-8.676 0-15.743-7.084-15.743-15.762l0.002-528.761c0-5.555-4.509-10.061-10.062-10.061-5.576 0-10.062 4.506-10.062 10.061l0.002 528.761c0 19.787 16.074 35.882 35.861 35.882h134.352c19.784 0 35.878-16.096 35.878-35.882v-528.761c0-5.555-4.507-10.061-10.058-10.061zM827.853 346.895c-5.571 0-10.061 4.506-10.061 10.061l0.005 528.761c0 8.678-7.086 15.762-15.764 15.762h-134.349c-8.673 0-15.764-7.084-15.764-15.762v-528.761c0-5.555-4.485-10.061-10.061-10.061-5.55 0-10.061 4.506-10.061 10.061l0.005 528.761c0 19.787 16.092 35.882 35.881 35.882h134.349c19.784 0 35.881-16.096 35.881-35.882v-528.761c0-5.555-4.506-10.061-10.061-10.061z" />
<glyph unicode="&#xe910;" glyph-name="line" d="M970.419 738.63l-78.648 114.17c-2.519 3.656-6.676 5.841-11.116 5.841h-94.223c-7.46 0-13.501-6.043-13.501-13.5s6.042-13.5 13.501-13.5h87.127l69.345-100.67-69.345-100.67h-456.159v201.341h380.803c7.455 0-30.203 5.701-30.203 13.158s24.013 13.712 16.558 13.712l-237.676 0.129v14.738c0 26.588-21.627 48.22-48.218 48.22-26.59 0-48.219-21.633-48.219-48.219v-14.738h-46.546c-7.458 0-13.5-6.042-13.5-13.5v-228.339c0-7.458 6.042-13.5 13.5-13.5h46.546v-57.53h-183.396c-7.457 0-13.5-6.043-13.5-13.5s6.043-13.5 13.5-13.5h339.552v-201.339h-456.158l-69.348 100.669 69.348 100.672 138.058-0.002c7.458 0-12.242 6.043-12.242 13.5s12.797 13.5 5.34 13.5l-138.248 0.002c-4.441 0-8.597-2.185-11.119-5.841l-78.651-114.177c-3.177-4.608-3.177-10.701 0-15.314l78.649-114.171c2.52-3.656 6.678-5.842 11.119-5.842h307.095v-263.434h-127.24l6.572 7.148c5.049 5.489 4.691 14.029-0.794 19.077-5.488 5.048-14.029 4.69-19.077-0.794l-15.805-17.183-15.845 23.583c-4.156 6.19-12.542 7.844-18.733 3.681-6.189-4.157-7.837-12.544-3.679-18.734l11.27-16.773h-47.686c-7.457 0-13.5-6.042-13.5-13.501 0-7.455 6.043-13.501 13.5-13.501h585.145c7.46 0 13.501 6.047 13.501 13.501 0 7.46-6.042 13.501-13.501 13.501h-112.23l6.569 7.142c5.048 5.489 4.69 14.029-0.794 19.077-5.489 5.048-14.029 4.695-19.077-0.794l-15.805-17.183-15.846 23.588c-4.152 6.185-12.539 7.839-18.729 3.676-6.19-4.157-7.839-12.544-3.681-18.729l11.269-16.778h-89.364v86.651c0 7.46-6.042 13.501-13.496 13.501-7.46 0-13.501-6.042-13.501-13.501v-86.656h-42.437v263.434h42.437v-180.925c0-7.455 6.042 17.649 13.501 17.649 7.455 0 13.496-40.812 13.496-33.357v196.634h73.221c7.46 0 13.501 6.042 13.501 13.501v228.339c0 7.457-6.042 13.5-13.501 13.5h-73.221v57.53h333.773c4.439 0 8.596 2.185 11.121 5.841l78.643 114.17c3.18 4.612 3.18 10.705 0 15.316zM477.446 873.381c0 11.7 9.519 21.219 21.219 21.219s21.22-9.519 21.22-21.219v-14.738h-42.439v14.738zM519.885 545.773h-42.439v57.53h42.439v-57.53z" />
<glyph unicode="&#xe911;" glyph-name="major" horiz-adv-x="768" d="M368.722 742.919c-21.13-19.247-51.869-21.722-75.425-7.786-10.184 6.025-23.465 3.112-30.245-6.632l-16.055-23.080c-5.887-8.464-5.334-19.883 1.346-27.764 20.049-23.661 22.269-48.951 6.791-77.318-15.205-27.869-17.744-60.956-6.963-90.784 10.775-29.811 33.865-53.615 63.355-65.314 32.043-12.715 54.186-23.518 62.22-27.58 6.424-3.238 14.097-3.238 20.521 0.004 8.032 4.058 30.176 14.861 62.218 27.575 29.487 11.699 52.578 35.503 63.356 65.314 10.782 29.828 8.243 62.915-6.963 90.782-15.475 28.367-13.252 53.657 6.788 77.318 6.682 7.885 7.236 19.302 1.348 27.766l-16.055 23.080c-6.775 9.742-20.058 12.654-30.242 6.632-23.578-13.946-54.313-11.447-75.424 7.784-8.719 7.942-21.861 7.94-30.572 0.002zM483.93 705.72l9.020-12.969c-24.917-32.315-27.243-69.163-6.647-106.913 11.055-20.262 12.902-44.313 5.069-65.996-7.829-21.662-24.614-38.963-46.046-47.467-29.46-11.686-50.984-21.892-61.319-26.999-10.337 5.111-31.859 15.313-61.316 26.999-21.433 8.503-38.218 25.805-46.047 47.467-7.835 21.679-5.988 45.734 5.070 65.996 20.595 37.746 18.266 74.596-6.65 106.911l9.023 12.969c31.964-15.782 70.984-12.349 99.922 10.49 28.884-22.795 67.892-26.299 99.922-10.488zM371.494 642.168l-6.993-14.167-15.632-2.272c-5.303-0.77-9.626-4.413-11.28-9.51s-0.3-10.584 3.535-14.322l11.314-11.028-2.671-15.573c-0.907-5.28 1.223-10.516 5.559-13.666 4.331-3.148 9.969-3.557 14.713-1.062l13.984 7.352 13.985-7.352c4.743-2.493 10.38-2.087 14.714 1.062s6.464 8.385 5.558 13.666l-2.671 15.573 11.313 11.028c3.836 3.738 5.193 9.228 3.537 14.322s-5.977 8.739-11.279 9.51l-15.634 2.272-6.992 14.17c-2.372 4.803-7.173 7.785-12.527 7.785-0.001 0-0.003 0-0.003 0-5.361-0.001-10.161-2.985-12.531-7.788zM387.305 616.704c2.037-4.122 5.967-6.977 10.517-7.639l7.334-1.065-5.313-5.177c-3.287-3.211-4.788-7.832-4.012-12.361l1.252-7.305-6.56 3.45c-4.070 2.139-8.931 2.14-13.003-0.001l-6.56-3.449 1.251 7.297c0.782 4.536-0.72 9.161-4.015 12.375l-5.308 5.173 7.337 1.065c4.553 0.662 8.486 3.521 10.517 7.643l3.281 6.647 3.281-6.652zM711.676 433.412c7.543 0 13.658 6.114 13.658 13.658v329.368c0 3.412-1.353 7.010-3.998 9.655l-140.041 140.040c-2.385 2.383-5.871 4-9.655 4h-155.776c-7.543 0-13.655-6.114-13.655-13.655s6.112-13.656 13.655-13.656h142.118v-87.907c0-28.746 23.39-52.132 52.134-52.132h87.906v-315.713c0-7.543 6.114-13.658 13.653-13.658zM610.116 790.094c-13.687 0-24.823 11.134-24.823 24.821v68.596l93.419-93.417h-68.595zM592.299 172.676h-401.789c-7.543 0-13.655-6.114-13.655-13.658s6.112-13.653 13.655-13.653h401.789c7.543 0 13.653 6.11 13.653 13.653s-6.11 13.658-13.653 13.658zM592.299 285.862h-401.789c-7.543 0-13.655-6.114-13.655-13.658 0-7.539 6.112-13.653 13.655-13.653h401.789c7.543 0 13.653 6.114 13.653 13.653 0 7.543-6.11 13.658-13.653 13.658zM421.327 930.133h-326.526c-28.746 0-52.134-23.386-52.134-52.132v-827.958c0-28.749 23.388-52.134 52.134-52.134h578.403c28.745 0 52.13 23.386 52.13 52.134v401.233c0 7.543-4.233 2.731-11.776 2.731s-15.535 12.096-15.535 4.553v-408.521c0-13.687-11.136-24.819-24.819-24.819h-578.403c-13.688 0-24.822 11.132-24.822 24.819v827.962c0 13.687 11.136 24.82 24.822 24.82h330.167c7.544 0-3.641 5.204-3.641 12.745s7.542 14.566 0 14.566z" />
<glyph unicode="&#xe912;" glyph-name="bar-chart" d="M955.734 17.066h-170.669c-9.424 0-17.066 7.642-17.066 17.069v921.599c0 9.425 7.642 17.067 17.066 17.067h170.669c9.424 0 17.066-7.642 17.066-17.067v-921.599c0-9.427-7.642-17.069-17.066-17.069zM938.666 938.667h-136.531v-887.467h136.531v887.467zM307.192 17.066h170.668c9.424 0 17.066 7.642 17.066 17.069v716.799c0 9.425-7.642 17.067-17.066 17.067h-170.668c-9.425 0-17.067-7.642-17.067-17.067v-716.799c0-9.427 7.642-17.069 17.067-17.069zM324.259 733.867h136.531v-682.667h-136.531v682.667zM716.797 17.066h-170.669c-9.424 0-17.066 7.642-17.066 17.069v512c0 9.424 7.642 17.066 17.066 17.066h170.669c9.424 0 17.066-7.642 17.066-17.066v-512c0-9.427-7.642-17.069-17.066-17.069zM699.728 529.066h-136.531v-477.866h136.531v477.866zM68.254 17.066h170.667c9.425 0 17.067 7.642 17.067 17.069v307.2c0 9.424-7.642 17.066-17.067 17.066h-170.667c-9.425 0-17.067-7.642-17.067-17.066v-307.2c0-9.427 7.642-17.069 17.067-17.069zM85.321 324.266h136.533v-273.066h-136.533v273.066zM1024-17.066h-1024v-34.134h1024v34.134z" />
<glyph unicode="&#xe913;" glyph-name="chart-vecter" d="M2778.673 953.993c-213.455 0-417.070-124.42-542.552-250.922-107.41-108.086-191.581-235.549-273.169-358.688-51.466-77.663-104.482-157.886-162.833-232.507-400.372-511.932-1122.794-802.565-1798.053-722.82l-2.066-15.855c336.338-39.712 686.275 8.487 1011.771 139.313s602.795 334.828 802.289 590.075c58.697 75.098 112.057 155.643 163.523 233.626 81.072 122.5 164.898 249.161 271.102 356.286 151.818 153.084 420.518 303.605 678.005 223.54 158.549-49.16 274.895-174.22 387.291-295.118 122.904-132.264 250.1-269.015 432.738-305.684 195.535-39.392 381.099 49.959 560.445 136.268 162.499 78.143 330.484 159.169 506.929 146.037 263.168-19.534 455.095-237.149 614.327-439.713l652.873-830.586 13.946 9.448-652.873 830.427c-161.475 205.444-356.498 426.262-626.907 446.279-181.76 13.29-351.646-68.537-516.218-147.8-184.856-88.871-359.4-172.939-548.913-134.829-176.933 35.55-296.57 164.293-423.253 300.561-113.957 122.499-231.863 249.321-394.874 299.922-51.102 15.693-102.741 22.738-153.527 22.738zM2778.673 689.642c-213.455 0-417.070-124.421-542.552-250.921-107.41-108.088-191.581-235.549-273.169-358.688-51.466-77.663-104.482-157.889-162.833-232.507-400.372-511.932-1122.794-802.565-1798.053-722.822l-2.066-15.852c336.338-39.712 686.275 8.487 1011.771 139.313 325.495 130.823 602.795 334.828 802.289 590.073 58.697 75.101 112.057 155.646 163.523 233.628 81.072 122.5 164.898 249.161 271.102 356.286 151.818 153.083 420.518 303.604 678.005 223.539 158.549-49.159 274.895-174.219 387.291-295.117 122.904-132.267 250.1-269.017 432.738-305.686 195.535-39.39 381.099 49.961 560.445 136.27 162.499 78.143 330.484 159.169 506.929 146.037 263.168-19.534 455.095-237.151 614.327-439.713l652.873-830.586 13.946 9.448-652.873 830.425c-161.475 205.446-356.498 426.264-626.907 446.279-181.76 13.292-351.646-68.535-516.218-147.797-184.856-88.871-359.4-172.939-548.913-134.829-176.933 35.547-296.57 164.291-423.253 300.561-113.957 122.5-231.863 249.32-394.874 299.922-51.102 15.692-102.741 22.738-153.527 22.738zM2778.673 425.296c-213.455 0-417.070-124.421-542.552-250.921-107.41-108.088-191.581-235.549-273.169-358.688-51.466-77.663-104.482-157.886-162.833-232.507-400.372-511.932-1122.794-802.565-1798.053-722.822l-2.066-15.852c336.338-39.712 686.275 8.487 1011.771 139.313s602.795 334.828 802.289 590.073c58.697 75.101 112.057 155.646 163.523 233.628 81.072 122.5 164.898 249.161 271.102 356.286 151.818 153.083 420.518 303.604 678.005 223.539 158.549-49.159 274.895-174.219 387.291-295.117 122.904-132.267 250.1-269.015 432.738-305.686 195.535-39.39 381.099 49.961 560.445 136.27 162.499 78.143 330.484 159.169 506.929 146.037 263.168-19.534 455.095-237.149 614.327-439.713l652.873-830.586 13.946 9.448-652.873 830.427c-161.475 205.444-356.498 426.262-626.907 446.276-181.76 13.292-351.646-68.535-516.218-147.797-184.856-88.871-359.4-172.939-548.913-134.829-176.933 35.55-296.57 164.293-423.253 300.561-113.957 122.5-231.863 249.322-394.874 299.922-51.102 15.692-102.741 22.738-153.527 22.738z" />
<glyph unicode="&#xe914;" glyph-name="padlock" d="M512 942.685c-150.588 0-271.058-120.471-271.058-271.059v-120.471c-51.2 0-90.353-39.151-90.353-90.351v-391.531c0-51.2 39.153-90.355 90.353-90.355h542.12c51.2 0 90.351 39.155 90.351 90.355v391.531c0 51.2-39.151 90.351-90.351 90.351v120.471c0 150.589-120.474 271.059-271.061 271.059zM813.175 460.804v-391.531c0-18.069-12.045-30.118-30.114-30.118h-542.12c-18.071 0-30.118 12.049-30.118 30.118v391.531c0 18.069 12.047 30.114 30.118 30.114h542.12c18.069 0 30.114-12.045 30.114-30.114zM301.177 551.156v120.471c0 117.459 93.364 210.824 210.823 210.824 117.461 0 210.825-93.364 210.825-210.824v-120.471h-421.647zM512 400.572c-51.2 0-90.354-39.155-90.354-90.355 0-39.151 24.093-72.282 60.236-84.326v-66.261c0-18.069 12.045-30.118 30.118-30.118 18.069 0 30.114 12.049 30.114 30.118v66.261c36.143 12.045 60.237 45.175 60.237 84.326 0 51.2-39.151 90.355-90.351 90.355zM512 280.098c-18.074 0-30.118 12.049-30.118 30.118 0 18.074 12.045 30.118 30.118 30.118 18.069 0 30.114-12.045 30.114-30.118 0-18.069-12.045-30.118-30.114-30.118z" />
<glyph unicode="&#xe915;" glyph-name="checked-list" d="M921.569-51.2h-819.173v1023.966h819.173v-1023.966zM170.661 17.064h682.644v887.437h-682.644zM546.115 68.263v51.198h102.397v-51.198zM546.115 136.527v51.198h238.925v-51.198zM546.115 238.924v51.198h102.397v-51.198zM546.115 307.188v51.198h238.925v-51.198zM449.111 452.625l-0.546-0.546-141.376 142.707 79.938 80.689 61.984-62.598 227.901 230.153 79.869-80.62-307.19-310.33zM443.719 153.593h-204.793v204.793h204.793v-204.793zM290.124 307.188v0-102.397h102.397v102.397z" />
<glyph unicode="&#xe916;" glyph-name="user" d="M102.397-51.166v253.602c68.264 110.93 273.058 190.15 273.058 190.15l136.529-136.529 136.529 136.529s204.793-79.221 273.058-190.15v-253.602zM307.19 631.478c0 113.104 91.689 204.793 204.793 204.793v0c113.104 0 204.793-91.689 204.793-204.793v0c0-113.104-91.689-204.793-204.793-204.793v0c-113.104 0-204.793 91.689-204.793 204.793v0z" />
<glyph unicode="&#xe917;" glyph-name="victim" d="M477.851-17.034v35.429c-109.928 8.392-207.372 55.97-279.625 128.624l-0.020 0.020c-72.668 72.282-120.251 169.719-128.586 278.146l-0.093 1.499h-35.395c-18.851 0-34.132 15.282-34.132 34.132v0c0 18.851 15.282 34.132 34.132 34.132v0h35.429c8.418 109.929 56.004 207.368 128.659 279.626l0.020 0.020c72.277 72.675 169.716 120.26 278.147 128.586l1.498 0.092v35.395c0 18.851 15.282 34.132 34.132 34.132v0c18.851 0 34.132-15.282 34.132-34.132v0-35.429c109.929-8.418 207.368-56.004 279.626-128.659l0.020-0.020c72.655-72.269 120.219-169.7 128.518-278.118l0.092-1.493h35.429c18.851 0 34.132-15.282 34.132-34.132v0c0-18.851-15.282-34.132-34.132-34.132v0h-35.429c-8.411-109.924-55.984-207.362-128.625-279.626l-0.019-0.019c-72.282-72.66-169.721-120.233-278.147-128.552l-1.498-0.092v-35.429c0-18.851-15.282-34.132-34.132-34.132v0c-18.851 0-34.132 15.282-34.132 34.132v0zM546.115 119.495v-32.596c180.32 17.193 322.593 159.466 339.669 338.268l0.117 1.518h-32.596c-18.851 0-34.132 15.282-34.132 34.132v0c0 18.851 15.282 34.132 34.132 34.132v0h32.596c-17.193 180.32-159.466 322.593-338.268 339.669l-1.518 0.117v-32.596c0-18.851-15.282-34.132-34.132-34.132v0c-18.851 0-34.132 15.282-34.132 34.132v0 32.596c-180.32-17.193-322.593-159.466-339.669-338.268l-0.117-1.518h32.596c18.851 0 34.132-15.282 34.132-34.132v0c0-18.851-15.282-34.132-34.132-34.132v0h-32.596c17.193-180.32 159.466-322.593 338.268-339.669l1.518-0.117v32.596c0 18.851 15.282 34.132 34.132 34.132v0c18.851 0 34.132-15.282 34.132-34.132v0zM307.19 256.024v136.529c34.132 59.731 136.529 102.397 136.529 102.397l68.264-34.132 68.264 34.132s102.397-42.665 136.529-102.397v-136.529zM409.586 597.346c0 56.552 45.845 102.397 102.397 102.397v0c56.552 0 102.397-45.845 102.397-102.397v0c0-56.552-45.845-102.397-102.397-102.397v0c-56.552 0-102.397 45.845-102.397 102.397v0z" />
<glyph unicode="&#xe918;" glyph-name="building" d="M0-51.166v68.264h102.397v785.040h170.661v170.661h477.851v-170.661h170.661v-785.040h102.397v-68.264zM853.305 17.099v716.776h-682.644v-716.776h238.925v273.058h204.793v-273.058h238.925zM580.247 17.099v238.925h-136.529v-238.925h51.198v102.397h34.132v-102.397zM682.644 802.139v102.397h-341.322v-102.397zM375.454 153.627h-136.529v136.529h136.529v-136.529zM266.231 180.933h81.917v81.917h-81.917zM785.040 153.627h-136.529v136.529h136.529v-136.529zM675.817 180.933h81.917v81.917h-81.917zM494.917 170.693v34.132h34.132v-34.132zM785.040 324.288h-136.529v136.529h136.529v-136.529zM675.817 351.594h81.917v81.917h-81.917zM580.247 324.288h-136.529v136.529h136.529v-136.529zM471.024 351.594h81.917v81.917h-81.917zM375.454 324.288h-136.529v136.529h136.529v-136.529zM266.231 351.594h81.917v81.917h-81.917zM785.040 494.949h-136.529v136.529h136.529v-136.529zM675.817 522.255h81.917v81.917h-81.917zM580.247 494.949h-136.529v136.529h136.529v-136.529zM471.024 522.255h81.917v81.917h-81.917zM375.454 494.949h-136.529v136.529h136.529v-136.529zM266.231 522.255h81.917v81.917h-81.917z" />
<glyph unicode="&#xe919;" glyph-name="dollar" horiz-adv-x="991" d="M561.945-34.684v80.467c-18.769-4.405-41.33-7.915-64.351-9.797l-1.713-0.113v-70.689h-66.065v69.929q-11.132 0.76-24.213 2.18-28.243 3.105-57.575 9.051c-22.073 4.422-40.723 9.499-58.868 15.666l3.275-0.967c-16.018 5.003-29.953 11.625-42.721 19.896l0.671-0.407v111.781c13.357-11.605 28.475-21.762 44.765-29.922l1.249-0.567c15.741-8.169 34.416-15.919 53.781-22.128l2.638-0.731c16.251-5.396 36.264-10.395 56.754-14.007l2.704-0.395q8.919-1.519 17.408-2.577v313.509q-29.729 15.723-56.353 31.744c-24.153 14.389-45.059 30.449-63.881 48.649l0.095-0.092c-17.37 16.879-31.688 36.786-42.121 58.886l-0.523 1.232c-9.84 21.958-15.572 47.592-15.572 74.564 0 1.472 0.017 2.939 0.051 4.403l-0.004-0.217c-0.035 1.345-0.055 2.929-0.055 4.518 0 33.743 9.019 65.379 24.777 92.631l-0.476-0.893c16.277 27.285 37.674 49.853 63.046 66.982l0.739 0.47c25.809 17.353 55.845 30.982 88.044 39.205l2.002 0.433h0.198v98.271h66.065v-86.941q18.234 1.619 36.732 1.619 15.195 0 29.3-0.462v85.884h66.065v-91.268c29.349-3.462 56.076-11.518 80.55-23.474l-1.471 0.649v-106.694c-22.661 15.632-48.991 28.079-77.243 35.902l-1.837 0.434v-335.641c18.349-12.551 34.407-25.746 49.225-40.205l-0.073 0.071c18.63-18.058 34.205-39.129 45.966-62.453l0.609-1.332c10.882-22.467 17.242-48.865 17.242-76.749 0-1.203-0.012-2.403-0.035-3.6l0.003 0.179c0.064-1.905 0.101-4.145 0.101-6.393 0-34.722-8.706-67.411-24.053-96.003l0.533 1.086c-15.619-27.598-36.937-50.268-62.492-67.002l-0.731-0.449c-7.37-4.887-16.023-9.864-24.984-14.315l-1.442-0.648v-103.193zM495.88 120.568c24.029 1.288 46.571 5.771 67.821 13.041l-1.756-0.522v231.919q-15.988 10.372-34.651 20.249-15.195 8.027-31.381 16.516zM628.009 186.104c8.58 16.383 13.615 35.789 13.615 56.371 0 1.085-0.014 2.168-0.042 3.246l0.003-0.16c0.019 0.769 0.030 1.675 0.030 2.583 0 19.458-5.043 37.737-13.893 53.603l0.287-0.56zM526.435 493.931q18.168-8.985 35.543-18.333v308.026q-18.795 1.586-38.879 1.586-13.576 0-27.186-1.255v-274.762q14.534-7.432 30.489-15.36zM405.636 757.529c-16.064-9.649-29.333-22.338-39.358-37.375l-0.28-0.447c-9.607-15.116-15.311-33.531-15.311-53.278 0-1.116 0.018-2.228 0.054-3.335l-0.004 0.161c-0.024-0.884-0.038-1.924-0.038-2.967 0-18.434 4.281-35.868 11.903-51.361l-0.304 0.684c8.758-16.277 20.207-29.972 33.9-40.992l0.255-0.199c9.752-8.022 20.599-15.788 31.95-22.814l1.28-0.738v224.619c-9.33-3.747-17.241-7.77-24.745-12.39l0.697 0.4z" />
<glyph unicode="&#xe91a;" glyph-name="addicts" d="M131.891-42.359l-120.661 120.661c-3.087 3.088-4.997 7.354-4.997 12.066s1.91 8.978 4.997 12.066v0c3.090 3.098 7.363 5.014 12.083 5.014s8.993-1.916 12.083-5.014v0l24.098-24.132 144.794 144.794-108.612 108.646c-3.087 3.088-4.997 7.354-4.997 12.066s1.91 8.978 4.997 12.066v0c3.087 3.077 7.346 4.98 12.049 4.98s8.963-1.903 12.049-4.98v0l48.265-48.265 482.748 482.714c6.177 6.175 14.708 9.994 24.132 9.994s17.956-3.819 24.132-9.994l144.828-144.828c6.175-6.177 9.994-14.708 9.994-24.132s-3.819-17.956-9.994-24.132l-482.713-482.713 48.265-48.299c3.087-3.088 4.997-7.354 4.997-12.066s-1.91-8.978-4.997-12.066v0c-3.088-3.087-7.354-4.997-12.066-4.997s-8.978 1.91-12.066 4.997l-108.578 108.544-144.794-144.794 24.132-24.132c3.087-3.088 4.997-7.354 4.997-12.066s-1.91-8.978-4.997-12.066v0c-3.086-3.079-7.345-4.982-12.049-4.983v0c-4.738 0.001-9.024 1.932-12.116 5.051l-0.001 0.001zM83.627 54.17l24.132-24.132 144.794 144.794-24.132 24.132zM300.851 174.831l36.147-36.181 168.926 168.926-36.147 36.181zM252.553 223.095l24.132-24.132 168.96 168.926-24.166 24.166zM192.171 283.443l36.25-36.215 168.926 168.926-36.215 36.215zM530.091 331.708l24.132 24.132-144.794 144.828-24.166-24.201zM578.389 380.006l241.357 241.323-144.828 144.828-241.323-241.357zM529.51 133.461c-0.676 3.429-1.063 7.371-1.063 11.404 0 29.103 20.156 53.497 47.269 59.987l0.42 0.085c8.122 4.207 17.73 6.674 27.914 6.674 22.95 0 42.975-12.528 53.608-31.118l0.159-0.302c0.672-3.419 1.056-7.35 1.056-11.37 0-29.119-20.167-53.528-47.297-60.020l-0.42-0.085c-8.802-3.344-18.978-5.304-29.604-5.359h-0.023c-1.356-0.125-2.933-0.196-4.526-0.196-20.905 0-38.95 12.243-47.357 29.95l-0.136 0.318zM627.029 176.777l-71.68-26.146c-2.83-1.061-4.807-3.744-4.807-6.888 0-0.896 0.161-1.755 0.455-2.549l-0.016 0.051c1.061-2.83 3.744-4.807 6.888-4.807 0.896 0 1.755 0.161 2.549 0.455l-0.051-0.016 71.68 26.112c2.846 1.053 4.838 3.744 4.838 6.899 0 0.892-0.159 1.747-0.451 2.538l0.016-0.051c-1.052 2.813-3.706 4.785-6.823 4.813h-0.003c-0.010 0-0.022 0-0.035 0-0.906 0-1.774-0.163-2.577-0.46l0.051 0.017zM678.844 245.385c-4.2 8.119-6.663 17.722-6.663 27.901 0 22.952 12.522 42.979 31.108 53.621l0.302 0.159c3.421 0.673 7.354 1.058 11.378 1.058 29.107 0 53.508-20.151 60.012-47.264l0.085-0.421c4.207-8.122 6.674-17.73 6.674-27.914 0-22.95-12.528-42.975-31.118-53.608l-0.302-0.159c-3.984-1.492-8.589-2.356-13.395-2.356-0.091 0-0.182 0-0.273 0.001h0.014c-27.673 3.282-50.064 22.702-57.666 48.464l-0.122 0.483zM711.407 305.664c-2.834-1.048-4.817-3.726-4.817-6.868 0-0.904 0.164-1.77 0.465-2.569l-0.017 0.050 26.112-71.68c1.061-2.83 3.744-4.807 6.888-4.807 0.896 0 1.755 0.161 2.549 0.455l-0.051-0.016c2.83 1.061 4.807 3.744 4.807 6.888 0 0.896-0.161 1.755-0.455 2.549l0.016-0.051-26.112 71.68c-1.052 2.813-3.706 4.785-6.823 4.813h-0.003c-0.91-0.008-1.777-0.183-2.575-0.495l0.049 0.017zM723.183 766.225l24.132 24.132c17.5 6.204 37.682 9.789 58.702 9.789 7.799 0 15.482-0.493 23.021-1.451l-0.895 0.093 151.689 151.654 33.007 8.841-8.875-32.973-151.654-151.654c0.87-6.658 1.366-14.359 1.366-22.176 0-21.015-3.588-41.192-10.185-59.952l0.388 1.266-24.132-24.132z" />
<glyph unicode="&#xe91b;" glyph-name="folder" d="M341.322-51.166h-204.793c-18.851 0-34.132 15.282-34.132 34.132v0 955.701c0 18.851 15.282 34.132 34.132 34.132v0h511.983c18.851 0 34.132-15.282 34.132-34.132v0-34.132h136.529c18.851 0 34.132-15.282 34.132-34.132v0-482.39l34.132-21.401c1.57-1.297 3.413-2.628 5.325-4.13 12.185-9.318 28.808-21.981 28.808-38.16v-341.322c0-18.851-15.282-34.132-34.132-34.132v0zM819.173 17.099c18.851 0 34.132 15.282 34.132 34.132v0-1.331c0 0.478 0 0.922 0 1.399v204.793c0 0.478 0 0.922 0 1.399v-1.195c-0.116 18.762-15.353 33.927-34.132 33.927 0 0 0 0-0.001 0h-5.666c-16.259-2.81-28.471-16.809-28.471-33.659 0-0.19 0.002-0.38 0.005-0.57v0.029-204.793c0-0.014 0-0.030 0-0.046 0-18.226 14.286-33.116 32.271-34.082l0.086-0.004h1.775zM682.644 494.949l113.763-71.302v383.031c0 18.851-15.282 34.132-34.132 34.132v0h-79.63z" />
<glyph unicode="&#xe91c;" glyph-name="criminal" d="M238.925-51.2c-18.851 0-34.132 15.282-34.132 34.132v0 34.132h-68.264c-18.851 0-34.132 15.282-34.132 34.132v0 441.705c0 0.683 0 1.365 0 2.014v68.264c0 18.851 15.282 34.132 34.132 34.132v0c18.851 0 34.132-15.282 34.132-34.132v0-443.719c0-18.851 15.282-34.132 34.132-34.132v0 750.908c0 18.851 15.282 34.132 34.132 34.132v0h511.983c0 18.851-15.282 34.132-34.132 34.132v0h-511.983c-18.851 0-34.132-15.282-34.132-34.132v0-170.661c0-18.851-15.282-34.132-34.132-34.132v0c-18.851 0-34.132 15.282-34.132 34.132v0 68.264c0 0.683 0 1.365 0 2.014v168.647c0 18.851 15.282 34.132 34.132 34.132v0h648.512c18.851 0 34.132-15.282 34.132-34.132v0-68.264h68.264c18.851 0 34.132-15.282 34.132-34.132v0-273.058c0-18.851-15.282-34.132-34.132-34.132v0c-18.851 0-34.132 15.282-34.132 34.132v0 68.264c0 0.375 0 0.751 0 1.092v135.437c0 18.851-15.282 34.132-34.132 34.132v0h-511.983c-18.851 0-34.132-15.282-34.132-34.132v0-716.776c0-18.851 15.282-34.132 34.132-34.132v0h511.983c18.851 0 34.132 15.282 34.132 34.132v0 375.454c0 18.851 15.282 34.132 34.132 34.132v0c18.851 0 34.132-15.282 34.132-34.132v0-443.719c0-18.851-15.282-34.132-34.132-34.132v0zM507.751 85.329v34.132h260.258c9.425 0 17.066-7.641 17.066-17.066v0c0-9.425-7.641-17.066-17.066-17.066v0zM452.252 85.329h-93.864c-9.425 0-17.066 7.641-17.066 17.066v0c0 9.425 7.641 17.066 17.066 17.066v0h93.829v-34.132zM618.68 153.593v34.132h149.328c9.425 0 17.066-7.641 17.066-17.066v0c0-9.425-7.641-17.066-17.066-17.066v0zM535.466 153.593h-177.078c-9.425 0-17.066 7.641-17.066 17.066v0c0 9.425 7.641 17.066 17.066 17.066v0h177.078v-34.132zM480.035 221.858v34.132h288.007c9.425 0 17.066-7.641 17.066-17.066v0c0-9.425-7.641-17.066-17.066-17.066v0zM452.252 221.858h-93.864c-9.425 0-17.066 7.641-17.066 17.066v0c0 9.425 7.641 17.066 17.066 17.066v0h93.829v-34.132zM358.422 290.122c-9.425 0-17.066 7.641-17.066 17.066v0c0 9.425 7.641 17.066 17.066 17.066v0h409.586c9.425 0 17.066-7.641 17.066-17.066v0c0-9.425-7.641-17.066-17.066-17.066v0zM439.964 324.254v87.788h98.574v212.644c-10.757 7.787-18.635 18.969-22.095 31.955l-0.091 0.403v-2.184h-79.46l19.763-23.415h8.089v-29.251c0.125-1.548 0.196-3.351 0.196-5.171 0-35.487-27.078-64.65-61.7-67.953l-0.275-0.021c-34.835 3.39-61.84 32.522-61.84 67.961 0 1.824 0.072 3.632 0.212 5.42l-0.015-0.236v29.251h8.089l43.689 51.847v0.819h121.34c1.574 26.47 22.377 47.616 48.554 49.719l0.187 0.012c26.364-2.115 47.167-23.26 48.734-49.585l0.007-0.146h121.306v-0.819l43.689-51.847h8.123v-29.217c0.127-1.563 0.2-3.384 0.2-5.221 0-35.428-26.988-64.553-61.528-67.936l-0.281-0.022c-34.835 3.39-61.84 32.522-61.84 67.961 0 1.824 0.072 3.632 0.212 5.42l-0.015-0.236v29.251h8.123l19.728 23.415h-79.596v2.116c-3.552-13.377-11.431-24.549-22.018-32.207l-0.168-0.116v-212.609h98.608v-87.788zM680.118 602.158h6.314c-0.074-0.923-0.116-1.997-0.116-3.082 0-21.268 16.209-38.749 36.948-40.765l0.168-0.013c20.907 2.027 37.118 19.51 37.118 40.778 0 1.097-0.043 2.183-0.128 3.258l0.009-0.142h-80.313zM402.965 558.299c20.906 2.029 37.115 19.51 37.115 40.778 0 1.085-0.042 2.159-0.125 3.223l0.009-0.141h-73.999c-0.074-0.923-0.116-1.997-0.116-3.082 0-21.268 16.209-38.749 36.948-40.765l0.168-0.013zM678.343 602.158v0zM704.727 631.444h37.306l-18.636 22.152zM384.26 631.444h37.306l-18.636 22.152zM538.504 675.304c-0.050-0.618-0.078-1.338-0.078-2.065 0-14.183 10.813-25.84 24.644-27.178l0.111-0.009c13.943 1.347 24.756 13.004 24.756 27.186 0 0.727-0.028 1.447-0.084 2.159l0.006-0.094c0.053 0.639 0.083 1.382 0.083 2.133 0 14.185-10.816 25.843-24.65 27.178l-0.111 0.009c-13.93-1.36-24.727-13.011-24.727-27.184 0-0.752 0.030-1.496 0.090-2.233l-0.006 0.097z" />
<glyph unicode="&#xe91d;" glyph-name="army" d="M512-51.166h-392.841c-10.24 1.365-16.759 10.547-16.759 23.893 2.628 113.801 112.299 200.465 170.667 204.186h71.919c-13.421 12.707-25.396 26.687-35.814 41.821l-0.572 0.88c-20.631 29.896-36.445 64.91-45.355 102.592l-0.418 2.095v50.039c-11.23 6.827-63.283 26.453-70.656 66.048-0.759 3.008-1.195 6.46-1.195 10.015 0 19.412 12.995 35.79 30.761 40.906l0.3 0.074c5.803 191.386 134.042 344.747 290.816 344.747s285.525-154.146 290.816-346.078c16.569-5.847 28.229-21.371 28.229-39.618 0-3.629-0.461-7.149-1.328-10.507l0.064 0.291c-7.134-38.298-56.013-58.027-69.427-65.331v-50.586c-9.12-40.137-24.675-75.537-45.71-106.959l0.722 1.145c-10.44-15.599-21.758-29.204-34.331-41.534l-0.042-0.041h69.086c44.526-9.329 82.283-33.539 108.721-67.086l0.301-0.395c34.661-35.666 57.377-83.103 61.595-135.757l0.050-0.776c3.652-14.609-12.015-23.518-12.663-23.893h-396.937zM456.704 91.477c21.709-28.979 40.448-53.965 54.818-53.965h0.99c14.882 0 35.977 27.307 60.416 58.743 7.168 9.25 14.643 18.876 22.289 28.262-22.975-7.517-49.416-11.851-76.869-11.851-0.672 0-1.343 0.003-2.013 0.008l0.103-0.001h-4.437c-29.345 0.196-57.49 5.052-83.822 13.864l1.902-0.552c9.284-11.366 18.159-23.211 26.624-34.543zM741.888 139.264c-2.862-3.582-4.592-8.177-4.592-13.175s1.73-9.594 4.625-13.218l-0.033 0.042c2.731-1.741 16.725-10.889 29.321-21.094 5.843-4.691 10.966-9.879 15.443-15.597l0.156-0.206c3.298-4.182 6.752-7.907 10.48-11.339l0.067-0.061c4.179-4.1 9.864-6.677 16.151-6.826l0.028-0.001c0.005 0 0.012 0 0.018 0 3.22 0 6.267 0.743 8.977 2.067l-0.121-0.053c2.579 1.715 4.44 4.333 5.139 7.394l0.016 0.081c0.393 1.417 0.618 3.045 0.618 4.725 0 3.813-1.162 7.354-3.151 10.29l0.041-0.064-0.785 1.331c-7.26 11.542-16.221 21.275-26.658 29.157l-0.273 0.197c-10.19 9.216-21.331 17.885-33.090 25.699l-1.044 0.652c-3.124 1.93-6.896 3.101-10.937 3.174h-0.020c-3.885-0.018-7.48-1.242-10.435-3.316l0.059 0.039zM260.779 139.264c-12.803-8.519-23.942-17.185-34.403-26.59l0.27 0.239c-10.677-8.044-19.606-17.745-26.568-28.808l-0.261-0.445-0.922-1.434c-1.93-2.868-3.080-6.4-3.080-10.201 0-1.689 0.227-3.325 0.653-4.879l-0.030 0.129c0.713-3.135 2.56-5.75 5.077-7.448l0.043-0.027c2.59-1.271 5.636-2.014 8.856-2.014 0.018 0 0.037 0 0.055 0h-0.003c6.303 0.159 11.974 2.734 16.149 6.83l-0.004-0.004c3.809 3.495 7.274 7.22 10.429 11.202l0.152 0.199c4.638 5.913 9.748 11.099 15.384 15.662l0.181 0.142c13.653 11.093 29.184 21.026 29.321 21.094 2.856 3.584 4.583 8.178 4.583 13.175s-1.727 9.592-4.616 13.219l0.033-0.043c-2.852 1.987-6.389 3.174-10.204 3.174-0.013 0-0.025 0-0.038 0h0.002c-4.107-0.092-7.913-1.3-11.151-3.33l0.092 0.054zM331.127 420.932v-86.494c6.699-28.821 18.156-54.196 33.627-76.584l-0.483 0.74c31.725-47.002 84.789-77.499 144.977-77.499 0.836 0 1.67 0.006 2.503 0.018l-0.126-0.001h3.209c1.263-0.034 2.75-0.054 4.241-0.054 58.702 0 110.333 30.279 140.125 76.071l0.394 0.646c14.746 21.93 26.021 47.582 32.304 75.134l0.293 1.529v86.494l-19.729 31.437h-320.546zM513.536 598.426l63.317-35.191-11.878 76.425 49.425 52.258-70.11 11.264-30.72 65.843-30.72-65.843-70.11-11.264 49.596-52.258-11.878-76.425 63.181 35.055z" />
<glyph unicode="&#xe91e;" glyph-name="secret-agent" horiz-adv-x="1019" d="M930.384-51.166h-334.531l72.665 148.556-57.317 43.497 106.621 191.985c76.205-31.783 136.145-89.884 169.537-162.693l0.819-1.992c26.805-60.764 42.409-131.615 42.409-206.112 0-4.656-0.061-9.298-0.182-13.925l0.014 0.683zM548.044-51.166h-77.419l19.117 271.645-22.275 41.392 43.701-2.105 40.747 2.105-22.275-41.392 18.54-271.645zM424.411-51.166h-336.127c-0.106 3.917-0.166 8.527-0.166 13.152 0 74.44 15.629 145.23 43.784 209.268l-1.309-3.338c34.262 74.797 94.229 132.892 168.345 163.901l2.112 0.784 106.451-191.713-56.264-43.531 73.208-148.522zM237.655 593.991c0.34 0 32.767-5.705 87.266-11.409v-56.502c8.148-34.774 37.974-60.604 74.154-62.605l0.208-0.009c36.502 2.182 66.439 27.877 74.99 62.048l0.12 0.566v46.723c13.311-0.306 27.165-0.475 40.747-0.475 11.171 0 22.614 0 33.956 0.374v-46.587c8.098-34.786 37.912-60.638 74.087-62.639l0.208-0.009c36.498 2.194 66.429 27.883 74.99 62.047l0.12 0.567v56.231c53.65 5.671 87.911 11.749 88.285 11.783-0.174-151.55-122.982-274.358-274.515-274.531h-0.016c-151.528 0.154-274.334 122.912-274.565 274.407v0.022zM118.811 694.771c4.21 31.341 119.354 45.093 119.354 45.093 6.282 108.454 60.237 205.975 203.734 232.936h126.281c137.86-14.839 196.705-101.324 208.522-232.392 0.374-2.547 131.578-20.679 126.281-46.146 2.649-39.253-241.526-66.315-393.138-66.315s-401.016 27.029-390.999 66.825z" />
<glyph unicode="&#xe91f;" glyph-name="check-list" d="M921.569-51.166h-819.173v1023.966h819.173v-1023.966zM170.661 17.099h682.644v887.437h-682.644zM443.719 85.363h-204.793v204.793h204.793v-204.793zM290.124 136.561h102.397v102.397h-102.397zM546.115 136.561v51.198h102.397v-51.198zM546.115 238.958v51.198h238.925v-51.198zM443.719 358.42h-204.793v204.793h204.793v-204.793zM290.124 409.619h102.397v102.397h-102.397zM546.115 409.619v51.198h102.397v-51.198zM546.115 512.015v51.198h238.925v-51.198zM443.719 631.478h-204.793v204.793h204.793v-204.793zM290.124 682.676h102.397v102.397h-102.397zM546.115 682.676v51.198h102.397v-51.198zM546.115 785.073v51.198h238.925v-51.198z" />
<glyph unicode="&#xe920;" glyph-name="map-vietnam" horiz-adv-x="1023" d="M732.671-19.785l23.604 10.233h25.036l21.046-10.233-21.046-4.502h-25.036l-11.529-5.389-12.075-14.121-10.506-7.504zM306.030-16.374c-3.411 22.478 3.991 33.052 0 55.735s-15.452 23.706-15.997 34.894 11.734 6.378 34.655 25.582c25.679 26.596 52.988 51.17 81.937 73.739l1.734 1.301c34.109 22.001 70.879 23.058 79.953 47.753s-0.546 38.885-2.661 68.219 9.073 102.874 0 136.438c-11.984 24.048-26.375 44.737-43.309 63.040l0.161-0.176c-15.349 20.090-40.147 51.71-68.219 84.762-29.779 34.639-63.408 64.702-100.56 89.972l-1.768 1.135s-23.467 16.782-23.467 28.277 8.016 10.642 23.467 17.566 31.449 15.486 34.109 22.41-10.233 15.963-10.233 15.963-14.906 37.861-23.877 40.931c-0.293 0.002-0.639 0.003-0.986 0.003-16.54 0-32.535-2.33-47.676-6.68l1.216 0.299c-9.363 0.041-18.166 2.396-25.879 6.524l0.297-0.145c-24.010 32.691-47.037 69.814-67.129 108.699l-2.215 4.715c-2.661 12.245 3.206 18.658 17.6 22.922 9.235 1.31 19.901 2.058 30.742 2.058 5.638 0 11.228-0.202 16.765-0.6l-0.743 0.043c5.812-0.211 12.64-0.332 19.497-0.332 14.372 0 28.621 0.529 42.728 1.569l-1.885-0.112c37.316 3.752 63.989 42.125 85.819 42.637s36.258-25.582 48.504-28.754c3.195-0.561 6.875-0.882 10.629-0.882 2.432 0 4.832 0.135 7.194 0.397l-0.291-0.026c2.37 0.497 5.093 0.782 7.882 0.782 7.536 0 14.587-2.078 20.61-5.693l-0.182 0.101c10.642-9.585 4.775-41.579 8.016-57.577s83.636-31.449 83.636-39.976-45.945-27.288-83.636-72.994-67.162-69.276-63.409-102.328 34.109-59.692 69.276-102.328c20.586-25.037 42.566-47.364 66.379-67.599l0.748-0.62 68.765-82.613c18.767-35.413 31.169-76.931 34.522-120.978l0.065-1.065c0.878-9.771 1.379-21.137 1.379-32.619 0-26.353-2.638-52.091-7.664-76.962l0.418 2.478c-2.115-15.968-7.872-30.278-16.408-42.504l0.206 0.311c-11.427-10.71-84.557-54.37-84.557-54.37s46.559 33.359-1.535-1.023-176.687-132.14-191.013-136.438c-1.207-0.401-2.598-0.648-4.042-0.682h-0.017c-9.278 0-6.549 14.838-9.619 34.826zM866.141-28.688l8.391 19.101 8.732 6.481 9.482-6.481v-13.644l-18.214-20.295zM756.275 15.962l11.017 8.596 11.222-8.596-11.222-4.878zM823.914 26.979l5.594 4.4 5.696-4.4-5.696-2.456zM824.528 45.5l-9.619-4.844-9.414 4.844 9.414 8.596 20.295 4.571v-25.173zM723.462 496.393l-1.262 1.978 2.763 0.648 1.808-1.057 2.524-1.433 0.171-1.569h-1.126l-1.74-0.205zM826.37 518.291l5.662 3.411 7.845 4.537 4.468-1.91-1.467-3.411-2.081-5.082-9.721-5.628-7.231-0.273zM771.249 519.656l-2.695 4.264 5.935 1.364 3.923-2.285 5.423-3.138 0.409-3.411-2.456-0.273-3.786-0.512zM741.881 530.81l-9.414 4.878 9.414 8.596 20.295 4.537 13.644-4.537 9.619-6.481-9.619-6.992-13.644-3.411zM795.023 543.601l-9.414 4.878 9.414 8.561h22.922l4.264-5.56-4.264-3.002-6.378-4.878zM762.483 569.694l-7.606-6.344-17.942-1.705-10.506 5.389 10.506 9.517 22.58 5.048 15.349-5.048 10.71-7.163-10.71-7.743zM859.934 578.495l-1.228 2.012 2.729 0.614 1.808-1.057 2.558-1.433 0.171-1.569h-1.16l-1.74-0.239zM826.404 604.964l-3.854 6.14 8.527 1.978 5.696-3.411 7.811-4.502 0.58-4.809-3.411-0.375-5.458-0.75zM755.866 620.79l-4.366 1.637 4.366 2.899h10.574l1.978-1.876-1.978-1.023-2.968-1.637z" />
<glyph unicode="&#xe921;" glyph-name="cdr" d="M458.547 50.005c0.016 35.806 18.61 67.265 46.666 85.262l0.404 0.242-50.176 196.915h-2.97c-75.638 0.078-136.934 61.373-137.011 137.004v0.007c0.097 75.63 61.381 136.914 137.002 137.011h0.009c0.053 0 0.115 0 0.178 0 25.626 0 49.599-7.080 70.069-19.389l-0.615 0.343 225.553 235.179c-7.947 14.068-12.629 30.891-12.629 48.807 0 0.049 0 0.098 0 0.147v-0.008c0.058 55.878 45.33 101.162 101.198 101.239h0.008c55.882-0.078 101.162-45.358 101.239-101.232v-0.007c-0.078-55.882-45.358-101.162-101.232-101.239h-0.007c-0.038 0-0.084 0-0.129 0-15.708 0-30.574 3.602-43.819 10.024l0.599-0.262-225.86-235.52c14.075-21.094 22.46-47.029 22.46-74.922 0-0.060 0-0.121 0-0.181v0.009c-0.043-52.589-29.679-98.246-73.152-121.223l-0.747-0.36 50.176-196.745c53.262-3.297 95.216-47.275 95.266-101.064v-0.005c-0.039-55.892-45.318-101.196-101.198-101.274h-0.007c-55.904 0.039-101.215 45.338-101.274 101.234v0.005zM505.788 50.005c0.058-29.793 24.204-53.926 53.995-53.965h0.004c29.788 0.039 53.926 24.176 53.965 53.961v0.004c-0.019 29.803-24.164 53.96-53.961 53.999h-0.004c-29.807-0.039-53.96-24.192-53.999-53.995v-0.004zM376.081 469.436c0.039-42.105 34.151-76.23 76.248-76.288h0.006c42.117 0.039 76.249 34.171 76.288 76.284v0.004c-0.058 42.102-34.183 76.215-76.284 76.254h-0.004c-42.039-0.116-76.079-34.203-76.117-76.25v-0.004zM780.766 871.526c0.019-30.557 24.776-55.325 55.326-55.364h0.004c30.569 0.019 55.345 24.795 55.364 55.362v0.002c-0.039 30.554-24.807 55.311-55.362 55.33h-0.002c-30.484-0.116-55.155-24.836-55.194-55.326v-0.004zM836.369 218.761c0 36.534 29.617 66.15 66.15 66.15v0c36.534 0 66.15-29.617 66.15-66.15v0c0-36.534-29.617-66.15-66.15-66.15v0c-36.475 0.078-66.014 29.664-66.014 66.15 0 0 0 0 0 0v0zM56.32 294.332c0 36.534 29.617 66.15 66.15 66.15v0c36.534 0 66.15-29.617 66.15-66.15v0c0-36.534-29.617-66.15-66.15-66.15v0c-36.534 0-66.15 29.617-66.15 66.15v0zM776.090 256.785l-49.357 27.887c-7.415 4.256-12.329 12.128-12.329 21.148 0 4.397 1.168 8.521 3.21 12.079l-0.063-0.118c4.256 7.415 12.128 12.329 21.148 12.329 4.397 0 8.521-1.168 12.079-3.21l-0.118 0.063 49.323-27.921c7.419-4.238 12.339-12.102 12.339-21.114 0-4.398-1.172-8.523-3.22-12.078l0.062 0.117c-4.236-7.429-12.104-12.356-21.124-12.356-0.002 0-0.003 0-0.005 0v0c-0.028 0-0.061 0-0.094 0-4.356 0-8.442 1.152-11.971 3.169l0.119-0.062zM217.259 339.285c-1.919 3.395-3.051 7.455-3.051 11.78 0 9.085 4.992 17.005 12.384 21.164l0.122 0.063 49.596 27.477c3.399 1.921 7.463 3.053 11.792 3.053 9.092 0 17.018-4.993 21.186-12.386l0.063-0.122c1.907-3.389 3.030-7.439 3.030-11.752 0-9.097-4.998-17.026-12.398-21.192l-0.122-0.063-49.596-27.511c-3.391-1.93-7.45-3.069-11.775-3.072h-0.001c-9.082 0.004-17 4.989-21.168 12.371l-0.063 0.121zM647.339 330.752l-49.323 27.921c-7.421 4.246-12.341 12.116-12.341 21.136 0 4.403 1.172 8.532 3.222 12.092l-0.062-0.118c4.248 7.413 12.114 12.327 21.127 12.327 4.392 0 8.512-1.167 12.066-3.207l-0.118 0.063 49.357-27.921c7.415-4.256 12.329-12.128 12.329-21.148 0-4.397-1.168-8.521-3.21-12.079l0.063 0.118c-4.266-7.412-12.142-12.322-21.164-12.322-0.011 0-0.023 0-0.034 0h0.002c-0.046 0-0.1 0-0.154 0-4.331 0-8.397 1.139-11.912 3.135l0.12-0.063zM342.562 625.015l-23.654 43.998c-1.81 3.32-2.874 7.272-2.874 11.472 0 9.217 5.124 17.238 12.679 21.369l0.127 0.064c3.323 1.817 7.28 2.886 11.486 2.886 9.217 0 17.235-5.13 21.355-12.691l0.064-0.127 23.62-43.998c1.822-3.327 2.893-7.288 2.893-11.501 0-9.206-5.119-17.216-12.665-21.341l-0.127-0.063c-3.317-1.821-7.267-2.895-11.467-2.901h-0.002c-0.030 0-0.065 0-0.1 0-9.19 0-17.187 5.108-21.306 12.64l-0.063 0.127zM278.084 743.253l-23.62 43.998c-1.829 3.33-2.905 7.296-2.905 11.514 0 9.205 5.125 17.213 12.677 21.327l0.127 0.063c3.323 1.817 7.28 2.886 11.486 2.886 9.217 0 17.235-5.13 21.355-12.691l0.064-0.127 23.654-43.998c1.81-3.32 2.874-7.272 2.874-11.472 0-9.217-5.124-17.238-12.679-21.369l-0.127-0.064c-3.317-1.821-7.267-2.895-11.467-2.901h-0.002c-9.174 0.022-17.151 5.123-21.27 12.639l-0.063 0.126zM156.262 897.775c0 36.534 29.617 66.15 66.15 66.15v0c36.475-0.078 66.014-29.664 66.014-66.15 0-0.036 0-0.072 0-0.108v0.006c0-36.534-29.617-66.15-66.15-66.15v0c-36.504 0.039-66.082 29.64-66.082 66.15v0z" />
<glyph unicode="&#xe922;" glyph-name="chart" d="M337.34 50.142v376.559h140.22v-376.559zM818.381 50.893v512.341h140.22v-512.341zM578.833 50.893v298.223h140.254v-298.223zM97.792 52.053v203.981h140.22v-203.981zM5.632 312.73c-3.459 4.558-5.541 10.326-5.541 16.581 0 8.949 4.262 16.902 10.867 21.941l0.067 0.049 370.005 278.801c1.347 1.026 2.869 1.969 4.479 2.761l0.163 0.073c4.561 3.474 10.338 5.566 16.603 5.566 6.933 0 13.267-2.561 18.109-6.789l-0.033 0.028 120.627-104.858 285.764 215.347-69.427 83.354 266.786 44.851-92.16-254.327-69.769 83.763-305.937-230.537c-4.553-3.456-10.315-5.536-16.564-5.536-8.277 0-15.701 3.651-20.751 9.429l-0.028 0.032-118.135 102.673-356.42-268.595c-4.532-3.472-10.282-5.564-16.52-5.564-0.012 0-0.025 0-0.037 0h0.002c-0.073-0.001-0.16-0.001-0.247-0.001-8.949 0-16.9 4.273-21.925 10.89l-0.050 0.068z" />
<glyph unicode="&#xe923;" glyph-name="dashboard" d="M621.206-51.166c-37.701 0-68.264 30.563-68.264 68.264v0 204.793c0 37.701 30.563 68.264 68.264 68.264v0h334.496c37.701 0 68.264-30.563 68.264-68.264v0-204.793c0-37.701-30.563-68.264-68.264-68.264v0zM617.076 215.714v-194.554c0-5.655 4.584-10.24 10.24-10.24h320.843c5.655 0 10.24 4.584 10.24 10.24v0 194.554c0 5.655-4.584 10.24-10.24 10.24v0h-320.843c-5.641-0.019-10.206-4.596-10.206-10.24 0 0 0 0 0 0v0zM68.264-51.166c-37.701 0-68.264 30.563-68.264 68.264v0 460.785c0 37.701 30.563 68.264 68.264 68.264v0h334.496c37.701 0 68.264-30.563 68.264-68.264v0-460.785c0-37.701-30.563-68.264-68.264-68.264v0zM64.169 471.057v-448.156c0-5.655 4.584-10.24 10.24-10.24v0h320.843c5.655 0 10.24 4.584 10.24 10.24v448.156c0 5.655-4.584 10.24-10.24 10.24v0h-320.843c-5.641-0.019-10.206-4.596-10.206-10.24 0 0 0 0 0 0v0zM621.206 375.487c-37.701 0-68.264 30.563-68.264 68.264v0 460.785c0 37.701 30.563 68.264 68.264 68.264v0h334.496c37.701 0 68.264-30.563 68.264-68.264v0-460.785c0-37.701-30.563-68.264-68.264-68.264v0zM617.11 897.709v-448.156c0-5.655 4.584-10.24 10.24-10.24v0h320.843c5.655 0 10.24 4.584 10.24 10.24v0 448.156c0 5.655-4.584 10.24-10.24 10.24v0h-320.843c-5.641-0.019-10.206-4.596-10.206-10.24 0 0 0 0 0 0v0zM68.264 631.478c-37.701 0-68.264 30.563-68.264 68.264v0 204.793c0 37.701 30.563 68.264 68.264 68.264v0h334.496c37.701 0 68.264-30.563 68.264-68.264v0-204.793c0-37.701-30.563-68.264-68.264-68.264v0zM64.134 898.358v-194.554c0-5.655 4.584-10.24 10.24-10.24v0h320.843c5.655 0 10.24 4.584 10.24 10.24v0 194.554c0 5.655-4.584 10.24-10.24 10.24v0h-320.843c-5.614-0.039-10.152-4.589-10.171-10.204v-0.002z" />
<glyph unicode="&#xe924;" glyph-name="file" d="M273.058-51.166c-94.206 0.116-170.544 76.454-170.661 170.65v682.655c0.136 94.199 76.462 170.525 170.648 170.661h477.864c94.206-0.116 170.544-76.454 170.661-170.65v-367.137c0-0.478 0-1.024 0-1.502v-122.876c0-22.621-18.338-40.959-40.959-40.959v0c-22.621 0-40.959 18.338-40.959 40.959v0 503.45c0 43.357-35.147 78.504-78.504 78.504h-498.33c-43.357 0-78.504-35.147-78.504-78.504v0-706.536c0-43.357 35.147-78.504 78.504-78.504v0h498.33c43.357 0 78.504 35.147 78.504 78.504v0 11.946h0.171c1.806 19.215 17.856 34.133 37.39 34.133 0.055 0 0.109 0 0.164 0h6.818c0.046 0 0.101 0 0.155 0 19.534 0 35.584-14.918 37.379-33.983l0.011-0.15v-1.707c0-0.58 0-1.126 0-1.707v0c-2.026-92.739-77.638-167.154-170.652-167.248h-0.009zM307.19 331.115c-22.621 0-40.959 18.338-40.959 40.959v0c0 22.621 18.338 40.959 40.959 40.959v0h249.165c22.621 0 40.959-18.338 40.959-40.959v0c0-22.621-18.338-40.959-40.959-40.959v0zM307.19 491.536c-22.621 0-40.959 18.338-40.959 40.959v0c0 22.621 18.338 40.959 40.959 40.959v0h409.586c22.621 0 40.959-18.338 40.959-40.959v0c0-22.621-18.338-40.959-40.959-40.959v0zM307.19 651.957c-22.621 0-40.959 18.338-40.959 40.959v0c0 22.621 18.338 40.959 40.959 40.959v0h409.586c22.621 0 40.959-18.338 40.959-40.959v0c0-22.621-18.338-40.959-40.959-40.959v0z" />
<glyph unicode="&#xe925;" glyph-name="files" d="M273.058-51.2c-50.897 0-92.157 41.26-92.157 92.157v0 27.306h-27.306c-50.897 0-92.157 41.26-92.157 92.157v0 720.189c0 50.897 41.26 92.157 92.157 92.157v0h597.313c50.897 0 92.157-41.26 92.157-92.157v0-27.306h-68.264v17.066c0 18.851-15.282 34.132-34.132 34.132v0h-576.834c-18.851 0-34.132-15.282-34.132-34.132v0-699.71c0-18.851 15.282-34.132 34.132-34.132v0h17.066v559.768h0.512c-0.017 0.397-0.026 0.864-0.026 1.332 0 9.44 3.832 17.985 10.026 24.164l120.658 120.658c6.178 6.185 14.716 10.010 24.148 10.010 0.606 0 1.209-0.016 1.808-0.047l-0.084 0.003v0.887h532.462c50.897 0 92.157-41.26 92.157-92.157v0-720.189c0-50.897-41.26-92.157-92.157-92.157v0zM249.165 51.197c0-18.851 15.282-34.132 34.132-34.132v0h576.834c18.851 0 34.132 15.282 34.132 34.132v0 699.71c0 18.851-15.282 34.132-34.132 34.132v0h-433.479v-139.942c0-18.851-15.282-34.132-34.132-34.132v0h-143.355zM249.165 682.984v-3.823h109.223v105.81h-7.236zM331.082 127.96c-16.966 0-30.719 13.753-30.719 30.719v0c0 16.966 13.753 30.719 30.719 30.719v0h481.264c16.966 0 30.719-13.753 30.719-30.719v0c0-16.966-13.753-30.719-30.719-30.719v0zM331.082 249.129c-16.966 0-30.719 13.753-30.719 30.719v0c0 16.966 13.753 30.719 30.719 30.719v0h481.264c16.966 0 30.719-13.753 30.719-30.719v0c0-16.966-13.753-30.719-30.719-30.719v0zM331.082 368.592c-16.966 0-30.719 13.753-30.719 30.719v0c0 16.966 13.753 30.719 30.719 30.719v0h481.264c16.966 0 30.719-13.753 30.719-30.719v0c0-16.966-13.753-30.719-30.719-30.719v0zM331.082 488.055c-16.966 0-30.719 13.753-30.719 30.719v0c0 16.966 13.753 30.719 30.719 30.719v0h481.264c16.966 0 30.719-13.753 30.719-30.719v0c0-16.966-13.753-30.719-30.719-30.719v0z" />
<glyph unicode="&#xe926;" glyph-name="grobal" d="M149.987 98.753c-92.649 92.14-149.989 219.702-149.989 360.656 0 0.495 0.001 0.99 0.002 1.484v-0.077c-0.001 0.408-0.002 0.891-0.002 1.374 0 140.954 57.34 268.517 149.966 360.633l0.023 0.023c92.136 92.629 219.685 149.955 360.622 149.955 0.495 0 0.99-0.001 1.484-0.002h-0.077c0.428 0.001 0.935 0.002 1.442 0.002 140.938 0 268.486-57.326 360.6-149.932l0.022-0.022c92.629-92.136 149.955-219.685 149.955-360.622 0-0.495-0.001-0.99-0.002-1.484v0.077c0.001-0.428 0.002-0.935 0.002-1.442 0-140.938-57.326-268.486-149.932-360.6l-0.022-0.022c-92.136-92.629-219.685-149.955-360.623-149.955-0.507 0-1.014 0.001-1.52 0.002h0.078c-0.418-0.001-0.913-0.002-1.408-0.002-140.938 0-268.486 57.326-360.6 149.932l-0.022 0.022zM512.017-12.184c261.031 0.311 472.554 211.834 472.865 472.836v0.029c0 0.052 0 0.112 0 0.173 0 29.972-2.782 59.295-8.103 87.724l0.457-2.936-3.072-3.106-15.531-2.833c0.277-2.259 0.435-4.874 0.435-7.527s-0.158-5.268-0.465-7.837l0.030 0.31c-0.58-14.029 4.267-28.707-2.355-40.961-6.588-13.654-8.465-22.119-42.327-15.053-19.764 7.032-56.015 23.519-56.015 23.519-2.245-8.889-3.918-19.384-4.677-30.132l-0.033-0.589c0.956-5.188 19.798-12.698 30.721-32.94s14.132-25.396 5.632-47.071c-10.478-19.176-23.503-35.509-38.876-49.274l-0.174-0.153-7.987-16.487-7.407-138.449c-13.618-22.32-28.908-41.639-46.242-58.906l-0.010-0.010c-11.329-15.309-28.822-25.5-48.741-26.886l-0.208-0.012c-30.209 6.631-56.474 20.586-77.76 39.925l0.138-0.124c-9.361 5.387-15.924 14.733-17.422 25.692l-0.020 0.182-26.796 120.938-11.776 11.264-82.366 8.943c-10.212 2.824-18.691 9.008-24.38 17.263l-0.095 0.146c-18.603 24.713-49.87 81.411-49.87 81.411s-4.267 3.755-5.188 21.641c1.263 30.004 10.24 98.376 10.24 98.376 2.461 8.913 7.404 16.455 14.033 22.066l0.064 0.053c22.66 22.028 47.771 41.756 74.821 58.674l1.879 1.096c4.893 3.982 11.202 6.395 18.074 6.395 4.365 0 8.503-0.973 12.208-2.714l-0.176 0.074c20.854-10.15 38.271-20.168 54.952-31.208l-1.77 1.101 119.061-11.299h13.654l56.015 43.76-2.833 23.894s-147.905 8.226-204.807 17.886c-10.319 3.294-18.458 10.819-22.509 20.482l-0.088 0.238c-1.912 4.694-3.022 10.139-3.022 15.844 0 11.804 4.752 22.499 12.447 30.275l-0.004-0.004c20.793 9.492 45.172 17.596 70.528 23.080l2.418 0.438 80.933 75.301 10.821 8.943 47.071 7.032 20.924-17.784c-55.021 50.135-122.469 87.61-197.145 107.265l-3.293 0.737-91.549-63.866-23.075-21.641c-26.336-31.996-54.539-60.502-85.129-86.263l-0.992-0.814c-12.22-6.11-20.924-1.058-35.295 5.632-9.315 4.909-16.838 12.125-21.98 20.905l-0.14 0.258c-4.034 6.234-6.431 13.854-6.431 22.034 0 4.231 0.641 8.312 1.832 12.151l-0.078-0.29c5.188 14.61 41.405 81.411 41.405 81.411l-6.827 31.813c-73.827-18.313-138.11-51.832-192.077-97.224l0.719 0.589 18.706-6.417c33.443-10.631 60.909-21.44 87.517-33.784l-4.57 1.903s8.602-1.126 11.469-18.774c1.865-7.774 2.935-16.699 2.935-25.874s-1.070-18.1-3.091-26.658l0.156 0.784c-2.271-13.36-9.475-24.722-19.634-32.368l-0.13-0.094c-8.981-2.587-19.463-4.433-30.251-5.163l-0.47-0.025-30.721-67.757c-15.122-30.638-29.993-56.22-46.345-80.728l1.629 2.594c-6.604-9.499-16.214-16.506-27.435-19.679l-0.351-0.085-41.405-7.544v-24.474c11.864-12.451 21.297-27.34 27.459-43.824l0.292-0.892c0.346-1.921 0.544-4.133 0.544-6.39 0-10.586-4.349-20.156-11.358-27.021l-0.006-0.006c-7.582-8.067-17.316-14.028-28.286-16.971l-0.421-0.096c-0.32-0.008-0.698-0.012-1.076-0.012-10.609 0-20.39 3.546-28.222 9.517l0.114-0.083-47.379 59.701c4.623-257.801 214.621-465.033 473.055-465.185h0.014zM492.253 508.196l-9.421-89.432 47.549-80.455s60.691-5.666 89.876-11.776c13.362-2.574 24.292-11.188 29.997-22.827l0.11-0.248c12.189-37.897 23.472-84.684 31.579-132.552l0.883-6.307 56.936-36.217 56.936 58.029s1.638 88.511 6.11 129.131c0.419 12.65 4.778 24.205 11.882 33.563l-0.106-0.145c13.224 19.107 26.679 35.813 41.227 51.491l-0.265-0.289-33.384 37.548c-4.95 8.34-7.875 18.386-7.875 29.115 0 2.177 0.12 4.326 0.355 6.441l-0.023-0.26c-0.002 0.2-0.003 0.436-0.003 0.673 0 17.88 6.021 34.353 16.147 47.503l-0.135-0.183c6.249 6.7 15.129 10.876 24.984 10.876 2.32 0 4.585-0.231 6.775-0.672l-0.219 0.037s57.414-26.796 58.814-25.874c-0.375 4.062-0.589 8.784-0.589 13.557 0 13.738 1.771 27.063 5.098 39.757l-0.242-1.089c8.465 22.119 20.72 18.842 20.72 18.842l22.768 6.554c-23.132 83.846-66.234 155.731-123.97 212.856l-0.041 0.040-68.679-13.347s-56.936-55.298-81.923-76.256c-4.676-7.032-17.852-7.51-17.852-7.51l-47.071-13.176 193.884-18.364c24.952-4.267 31.54-38.606 31.54-38.606 0.254-4.497 0.398-9.758 0.398-15.053s-0.145-10.556-0.43-15.78l0.032 0.727c-1.499-9.429-5.888-17.638-12.216-23.89l-0.004-0.004-53.659-43.283c-8.14-6.463-18.565-10.368-29.901-10.368-1.237 0-2.464 0.047-3.678 0.138l0.162-0.010c-40.483 1.912-94.587 9.182-131.759 13.654-6.265 0.441-12.070 1.956-17.386 4.362l0.318-0.129-41.883 26.352zM111.074 425.385c4.711-2.833 4.711 2.833 4.711 2.833l-21.198 31.54-5.632 13.176v42.361s-0.819 12.323 17.886 21.641c16.362 6.695 35.511 12.102 55.393 15.325l1.543 0.206s70.624 135.548 74.857 146.778c2.454 6.538 8.067 11.37 14.929 12.678l0.124 0.020c10.772 1.058 20.666 3.399 29.999 6.889l-0.814-0.267c5.188 2.97 0 37.172 0 37.172l-106.261 37.923c-72.992-73.299-122.040-170.492-134.391-278.827l-0.201-2.168c11.094-14.439 64.821-84.517 69.054-87.145zM447.537 890.331c0.018-0.449 0.029-0.975 0.029-1.504 0-6.125-1.396-11.924-3.886-17.097l0.103 0.236c-4.233-7.032-33.896-62.091-40.483-72.945-1.877-5.188 4.233-10.24 4.233-10.24l8.022-4.233s46.116 52.226 84.21 89.876c22.078 19.776 46.473 37.959 72.426 53.846l2.192 1.247c-18.699 2.608-40.303 4.096-62.254 4.096-0.051 0-0.101 0-0.152 0h0.008c-0.028 0-0.061 0-0.094 0-26.032 0-51.574-2.098-76.466-6.134l2.727 0.365zM342.13 39.017c-13.176 6.588-14.132 7.544-18.808 22.563-0.58 9.913-0.911 21.507-0.911 33.179s0.331 23.265 0.983 34.773l-0.072-1.594-35.295 72.467s-2.833 0.444-12.698 1.877c-6.948 0.384-13.379 2.259-19.089 5.309l0.246-0.12c-18.182 11.696-33.711 25.574-46.794 41.534l-0.277 0.349c-4.523 5.879-7.565 13.115-8.448 21.005l-0.018 0.193-1.912 23.519c-0.023 0.709-0.036 1.542-0.036 2.378 0 10.189 1.917 19.931 5.41 28.884l-0.186-0.541c13.659 16.344 28.182 30.975 43.858 44.288l0.517 0.428c4.503 2.737 9.947 4.357 15.77 4.357s11.267-1.62 15.907-4.434l-0.137 0.077 24.952-24.952h79.055s8.499-0.922 17.443-14.098c6.645-10.967 12.828-23.692 17.833-36.995l0.532-1.611 19.286-5.632c18.364-5.666 20.822-7.544 27.751-24.474s-1.912-27.751 0-43.283c0.268-1.591 0.422-3.424 0.422-5.292 0-7.184-2.267-13.838-6.124-19.287l0.070 0.104-30.721-32.462c0.584-7.326 0.916-15.861 0.916-24.474s-0.333-17.149-0.986-25.594l0.070 1.12c-5.987-13.928-13.745-25.899-23.175-36.329l0.1 0.112c-0.834-9.018-3.002-17.316-6.314-25.007l0.204 0.532c-5.003-9.331-14.392-15.74-25.335-16.482l-0.095-0.005c-4.228-1.080-9.125-1.78-14.158-1.943l-0.111-0.003c-7.256 0.21-13.994 2.25-19.823 5.67l0.196-0.106zM310.146 233.857c10.567-9.746 18.545-22.146 22.885-36.146l0.156-0.583 27.785-57.414v-66.357l6.588-1.877c-0.088 1.016-0.139 2.198-0.139 3.393 0 9.571 3.237 18.386 8.675 25.41l-0.071-0.095c6.695 6.852 12.387 14.724 16.815 23.353l0.252 0.542v37.172c1.501 11.526 6.793 21.602 14.563 29.139l0.012 0.012c7.195 7.561 13.991 15.699 20.24 24.262l0.48 0.69v33.896l-29.151 7.066c-11.617 13.917-21.415 29.915-28.69 47.234l-0.461 1.237h-64.855s-18.842 0-24.952 7.987-16.487 19.286-16.487 19.286l-25.43-27.308 1.912-30.721 31.54-32.018c1.831 0.197 3.954 0.309 6.104 0.309 0.17 0 0.34-0.001 0.51-0.002h-0.026c0.662 0.028 1.439 0.044 2.22 0.044 10.933 0 21.135-3.13 29.759-8.544l-0.234 0.137z" />
<glyph unicode="&#xe927;" glyph-name="grobal-localtion-line" d="M149.943 98.777c-92.623 92.13-149.945 219.67-149.945 360.599 0 0.507 0.001 1.013 0.002 1.52v-0.078c-0.001 0.418-0.002 0.913-0.002 1.408 0 140.945 57.336 268.499 149.956 360.609l0.023 0.023c92.13 92.623 219.67 149.945 360.598 149.945 0.495 0 0.99-0.001 1.484-0.002h-0.077c0.418 0.001 0.913 0.002 1.408 0.002 140.945 0 268.499-57.336 360.609-149.956l0.023-0.023c92.623-92.13 149.945-219.67 149.945-360.598 0-0.495-0.001-0.99-0.002-1.484v0.077c0.001-0.428 0.002-0.935 0.002-1.442 0-140.928-57.322-268.468-149.922-360.576l-0.022-0.022c-92.13-92.623-219.67-149.945-360.599-149.945-0.507 0-1.013 0.001-1.52 0.002h0.078c-0.428-0.001-0.935-0.002-1.442-0.002-140.928 0-268.468 57.322-360.576 149.922l-0.022 0.022zM511.983 17.099c243.48 0.237 441.077 196.348 443.716 439.236l0.002 0.25c-1.465-2.080-2.888-3.882-4.399-5.604l0.064 0.075c-25.077-24.258-55.146-43.528-88.498-56.104l-1.781-0.589-127.62-45.703s-92.635-50.584-123.866-45.191c0 0-17.612-4.335-34.678 18.739-13.544 23.728-26.387 43.51-40.197 62.545l1.355-1.96c-12.356 11.093-210.766-102.397-210.766-102.397-23.375-29.462-43.195-63.256-57.931-99.653l-0.981-2.743c-6.074-19.97-11.913-45.178-16.255-70.895l-0.538-3.855c72.295-53.812 163.347-86.15 261.953-86.15 0.148 0 0.296 0 0.444 0h-0.023zM68.264 460.817c0-0.092 0-0.201 0-0.31 0-119.484 47.387-227.899 124.392-307.479l-0.117 0.121c12.701 54.169 34.992 101.757 65.189 143.218l-0.781-1.126c20.718 29.149 139.601 88.061 202.267 121.647 26.157 14.813 56.463 26.587 88.518 33.72l2.206 0.412c45.293 8.158 38.126-63.793 65.158-80.996 17.749-24.882 44.952 6.178 105.4 29.832 39.081 15.223 81.371 8.328 143.833 42.256 46.59 25.326 49.901 115.503 60.892 180.355-66.597 166.418-226.41 281.872-413.214 282.068h-0.025c-244.942-0.291-443.427-198.777-443.719-443.691v-0.028zM271.078 324.288c-1.024 1.638-100.417 164.688-100.417 214.828 2.953 51.681 45.583 92.472 97.741 92.472 1.638 0 3.266-0.040 4.883-0.12l-0.228 0.009c1.39 0.071 3.018 0.111 4.656 0.111 52.158 0 94.788-40.791 97.729-92.212l0.012-0.26c0-50.14-103.318-213.19-104.342-214.828v0zM211.62 529.969c0-30.275 59.663-127.962 60.243-128.917 0.614 0.956 62.633 98.574 62.633 128.917-1.769 31.033-27.367 55.529-58.686 55.529-0.968 0-1.93-0.023-2.887-0.070l0.135 0.005c-0.831 0.042-1.805 0.066-2.784 0.066-31.313 0-56.903-24.5-58.647-55.376l-0.007-0.154zM783.709 426.685c-0.683 0.922-66.933 91.474-66.933 119.463s30.719 51.198 68.264 51.198 68.264-23.005 68.264-51.198-68.845-118.439-69.561-119.463zM744.082 540.994c10.366-27.418 23.927-51.118 40.605-72.244l-0.431 0.566c16.871 20.531 30.943 44.225 41.118 69.887l0.626 1.791c0 17.066-18.363 30.719-40.959 30.719s-40.959-13.755-40.959-30.719z" />
<glyph unicode="&#xe928;" glyph-name="grobal-point" d="M149.943 98.777c-92.623 92.13-149.945 219.67-149.945 360.599 0 0.507 0.001 1.013 0.002 1.52v-0.078c-0.001 0.418-0.002 0.913-0.002 1.408 0 140.945 57.336 268.499 149.956 360.609l0.023 0.023c92.13 92.623 219.67 149.945 360.598 149.945 0.495 0 0.99-0.001 1.484-0.002h-0.077c0.418 0.001 0.913 0.002 1.408 0.002 140.945 0 268.499-57.336 360.609-149.956l0.023-0.023c92.623-92.13 149.945-219.67 149.945-360.598 0-0.495-0.001-0.99-0.002-1.484v0.077c0.001-0.428 0.002-0.935 0.002-1.442 0-140.928-57.322-268.468-149.922-360.576l-0.022-0.022c-92.13-92.623-219.67-149.945-360.599-149.945-0.507 0-1.013 0.001-1.52 0.002h0.078c-0.428-0.001-0.935-0.002-1.442-0.002-140.928 0-268.468 57.322-360.576 149.922l-0.022 0.022zM68.264 460.817c0.272-244.95 198.769-443.447 443.692-443.719h0.026c244.95 0.272 443.447 198.769 443.719 443.692v0.026c-0.272 244.95-198.769 443.447-443.692 443.719h-0.026c-244.942-0.291-443.427-198.777-443.719-443.691v-0.028zM375.454 259.437c0 35.395 37.545 65.636 90.143 77.070-50.55 90.792-124.275 233.737-124.275 294.936 0.116 94.206 76.454 170.544 170.65 170.661h0.011c94.214-0.097 170.564-76.447 170.661-170.652v-0.009c0-61.165-73.76-204.179-124.275-294.936 52.529-11.434 90.143-41.675 90.143-77.070 0-45.191-61.233-81.917-136.529-81.917s-136.529 36.726-136.529 81.917zM443.719 266.264c0-22.561 30.719-40.959 68.264-40.959s68.264 18.363 68.264 40.959c0 16.622-16.622 30.992-40.413 37.545-16.315-28.535-27.306-46.864-27.818-47.58v0c-0.444 0.717-11.503 19.046-27.818 47.58-23.824-6.588-40.481-20.923-40.481-37.545zM409.586 631.478c0-55.84 101.338-223.532 102.397-225.272 0.956 1.604 102.397 169.808 102.397 225.272 0 56.552-45.845 102.397-102.397 102.397v0c-56.552 0-102.397-45.845-102.397-102.397v0z" />
<glyph unicode="&#xe929;" glyph-name="led" d="M440.291-51.132c-47.125 0-85.328 38.202-85.328 85.328v0 156.389h-54.61v59.729h54.61v103.793c-41.506 22.944-76.313 52.926-104.008 88.693l-0.57 0.765c-42.304 54.447-67.82 123.77-67.82 199.052 0 0.312 0 0.624 0.001 0.937v-0.049c0.272 181.792 147.599 329.083 329.378 329.296h0.021c181.829-0.214 329.17-147.567 329.365-329.38v-0.019c0.001-0.276 0.001-0.603 0.001-0.93 0-75.258-25.489-144.562-68.305-199.752l0.554 0.742c-29.809-38.523-66.976-69.833-109.575-92.2l-1.829-0.875v-100.175h61.436v-59.729h-61.436v-156.389c0-47.125-38.202-85.328-85.328-85.328v0zM421.519 41.022c0-18.85 15.281-34.131 34.131-34.131v0h112.632c18.85 0 34.131 15.281 34.131 34.131v0 29.046h-59.729v59.729h59.763v60.753h-180.895v-60.753h61.436v-59.729h-61.436zM602.413 250.314v148.197c100.274 38.156 170.3 133.334 170.655 244.914v0.044c-0.194 144.118-116.982 260.894-261.086 261.068h-0.016c-144.126-0.175-260.913-116.974-261.068-261.088v-0.015c0.366-111.621 70.387-206.794 168.855-244.356l1.8-0.603v-148.231zM834.504 419.399l29.865 51.743 106.421-61.436-29.865-51.743zM52.903 410.218l106.421 61.436 29.865-51.743-106.421-61.436zM482.238 430.15v187.721c-35.605 12.694-60.651 46.072-60.753 85.315v0.012c0.078 49.927 40.55 90.374 90.478 90.413h0.004c49.941-0.058 90.409-40.538 90.447-90.478v-0.004c-0.080-39.262-25.136-72.651-60.121-85.131l-0.633-0.197v-187.721zM481.214 703.199c0-16.965 13.753-30.718 30.718-30.718v0c16.965 0 30.718 13.753 30.718 30.718v0c0 16.965-13.753 30.718-30.718 30.718v0c-16.95-0.019-30.684-13.765-30.684-30.718 0-0.012 0-0.024 0-0.036v0.002zM901.026 611.045v59.729h122.872v-59.729zM-0.034 611.045v59.729h122.872v-59.729zM832.764 860.202l106.421 61.436 29.865-51.743-106.421-61.436zM54.576 869.895l29.865 51.743 106.421-61.436-29.865-51.743z" />
<glyph unicode="&#xe92a;" glyph-name="list" d="M1024.034 54.613h-725.333v226.987h725.333v-226.953zM358.434 114.347h605.867v107.52h-605.867zM226.987 54.613h-226.953v226.987h226.987v-226.953zM59.733 114.347h107.52v107.52h-107.52zM1024.034 348.16h-725.333v226.987h725.333v-226.953zM358.434 407.893h605.867v107.52h-605.867zM226.987 348.16h-226.953v226.987h226.987v-226.953zM59.733 407.893h107.52v107.52h-107.52zM1023.898 643.413h-725.197v226.987h725.333v-226.953zM358.298 703.147h605.867v107.52h-605.73zM226.816 643.413h-226.782v226.987h226.987v-226.953zM59.563 703.147h107.52v107.52h-107.52z" />
<glyph unicode="&#xe92b;" glyph-name="location-line" d="M0.034-51.166c3.373 82.758 31.005 158.453 75.918 220.883l-0.827-1.208c20.752 29.149 139.601 88.061 202.267 121.681 26.146 14.793 56.438 26.565 88.473 33.717l2.216 0.416c45.293 8.158 38.126-63.827 65.192-81.030 17.715-24.882 44.952 6.212 105.366 29.832 39.115 15.223 81.405 8.362 143.833 42.256 55.397 30.105 49.594 151.854 68.264 213.702 9.917 36.001 31.034 66.11 59.303 87.142l0.428 0.304c27.181 17.568 59.092 30.54 93.322 36.917l1.634 0.253c45.401 13.161 84.893 33.851 119.131 60.899l-0.726-0.553v-55.465c-26.109-21.98-56.328-40.212-89.159-53.288l-2.213-0.777c-32.221-6.854-60.77-18.369-86.568-33.974l1.238 0.695c-16.594-14.269-29.281-32.632-36.532-53.536l-0.263-0.871c-15.428-48.399-12.458-159.909-40.959-192.506-25.077-24.258-55.146-43.528-88.498-56.104l-1.781-0.589-127.381-45.737s-92.635-50.584-123.9-45.191c0 0-17.612-4.335-34.644 18.739-13.552 23.758-26.373 43.539-40.151 62.583l1.377-1.999c-12.356 11.093-210.766-102.397-210.766-102.397-23.388-29.461-43.22-63.255-57.964-99.654l-0.982-2.742c-8.726-30.196-14.603-65.215-16.375-101.313l-0.042-1.084zM133.901 256.024c-1.365 2.219-133.901 219.572-133.901 286.437 3.92 68.923 60.768 123.331 130.323 123.331 2.183 0 4.353-0.054 6.509-0.159l-0.304 0.012c1.853 0.094 4.023 0.148 6.205 0.148 69.555 0 126.404-54.407 130.308-122.985l0.016-0.345c0-66.831-137.723-284.219-139.123-286.437v0zM54.646 530.31c0-40.413 79.528-170.661 80.347-171.89 0.785 1.229 83.453 131.409 83.453 171.89-2.352 41.347-36.454 73.985-78.18 73.985-1.314 0-2.621-0.032-3.92-0.096l0.183 0.007c-1.106 0.056-2.4 0.088-3.703 0.088-41.725 0-75.828-32.638-78.171-73.777l-0.009-0.207zM748.28 563.214c-1.365 2.219-133.901 219.572-133.901 286.437 3.92 68.923 60.768 123.331 130.323 123.331 2.183 0 4.353-0.054 6.509-0.159l-0.304 0.012c1.853 0.094 4.023 0.148 6.205 0.148 69.555 0 126.404-54.407 130.308-122.985l0.016-0.345c0-66.831-137.723-284.219-139.123-286.437v0zM669.025 837.5c0-40.413 79.528-170.661 80.313-171.89 0.785 1.229 83.453 131.409 83.453 171.89-2.352 41.347-36.454 73.985-78.18 73.985-1.314 0-2.621-0.032-3.92-0.096l0.183 0.007c-1.095 0.055-2.378 0.086-3.669 0.086-41.725 0-75.827-32.637-78.171-73.775l-0.009-0.207z" />
<glyph unicode="&#xe92c;" glyph-name="report" d="M238.925-51.166c-18.851 0-34.132 15.282-34.132 34.132v0 68.264h-68.264c-18.851 0-34.132 15.282-34.132 34.132v0 853.305c0 18.851 15.282 34.132 34.132 34.132v0h648.512c18.851 0 34.132-15.282 34.132-34.132v0-68.264h68.264c18.851 0 34.132-15.282 34.132-34.132v0-853.305c0-18.851-15.282-34.132-34.132-34.132v0zM273.058 17.099h580.247v68.264c0-18.851-15.282-34.132-34.132-34.132v0h-443.719c-18.851 0-34.132 15.282-34.132 34.132v0c0 18.851 15.282 34.132 34.132 34.132v0h443.719c18.851 0 34.132-15.282 34.132-34.132v0 102.397c0-18.851-15.282-34.132-34.132-34.132v0h-443.719c-18.851 0-34.132 15.282-34.132 34.132v0c0 18.851 15.282 34.132 34.132 34.132v0h443.719c18.851 0 34.132-15.282 34.132-34.132v0 614.38h-580.247zM170.661 119.495h34.132v716.776c0 18.851 15.282 34.132 34.132 34.132v0h511.983v34.132h-580.247zM375.454 460.817c0.116 94.206 76.454 170.544 170.65 170.661h0.011c18.851 0 34.132-15.282 34.132-34.132v0-102.397h102.397c18.851 0 34.132-15.282 34.132-34.132v0c-0.097-94.214-76.447-170.564-170.652-170.661h-0.009c-94.214 0.097-170.564 76.447-170.661 170.652v0.009zM443.719 460.817c0-56.552 45.845-102.397 102.397-102.397v0c44.311 0.007 82.046 28.158 96.3 67.551l0.225 0.713h-96.526c-18.851 0-34.132 15.282-34.132 34.132v0 96.526c-40.106-14.48-68.258-52.214-68.264-96.525v-0.001zM648.512 529.081c-18.851 0-34.132 15.282-34.132 34.132v0 136.529c0 18.851 15.282 34.132 34.132 34.132v0 0c94.206-0.116 170.544-76.454 170.661-170.65v-0.011c0-18.851-15.282-34.132-34.132-34.132v0zM682.644 597.346h62.394c-10.624 29.178-33.216 51.77-61.678 62.165l-0.716 0.229z" />
<glyph unicode="&#xe92d;" glyph-name="search" d="M560.981 276.992l40.209 40.209-75.708 75.708c-54.375-43.293-124.061-69.463-199.86-69.463-0.333 0-0.665 0.001-0.997 0.002h0.051c-179.228 0.213-324.463 145.448-324.676 324.655v0.021c0.233 179.22 145.456 324.443 324.654 324.676h0.023c0.246 0.001 0.537 0.001 0.829 0.001 89.402 0 170.31-36.368 228.737-95.116l0.015-0.015c58.742-58.433 95.097-139.323 95.097-228.704 0-0.308 0-0.617-0.001-0.925v0.048c0.001-0.283 0.001-0.618 0.001-0.953 0-79.56-28.826-152.388-76.603-208.609l0.382 0.461 75.093-75.093 47.172 47.172 328.124-328.158-134.417-134.11zM60.279 650.411c0.155-144.723 117.424-262.003 262.127-262.178h0.017c144.734 0.155 262.023 117.444 262.178 262.163v0.015c-0.175 144.72-117.456 261.989-262.163 262.144h-0.015c-144.72-0.175-261.989-117.456-262.144-262.163v-0.015z" />
<glyph unicode="&#xe92e;" glyph-name="setting" d="M477.851-51.166c-50.897 0-92.157 41.26-92.157 92.157v0 24.541c-24.729 7.909-45.78 16.825-65.836 27.377l2.214-1.061-16.827-16.861c-16.677-16.673-39.713-26.986-65.158-26.986s-48.482 10.312-65.159 26.986l-48.297 48.297c-16.673 16.677-26.986 39.713-26.986 65.158s10.312 48.482 26.986 65.159v0l16.691 16.725c-9.626 18.034-18.648 39.288-25.82 61.375l-0.803 2.861h-24.541c-50.885 0-92.137 41.241-92.157 92.121v68.266c0 50.897 41.26 92.157 92.157 92.157v0h24.575c7.94 24.828 16.903 45.969 27.514 66.106l-1.062-2.211-16.554 16.554c-16.683 16.678-27.003 39.722-27.003 65.175s10.319 48.497 27.002 65.175l48.297 48.263c16.677 16.673 39.713 26.986 65.158 26.986s48.482-10.312 65.159-26.986l16.554-16.554c17.939 9.565 39.091 18.539 61.069 25.683l2.86 0.804v24.609c0.039 50.855 41.265 92.069 92.121 92.089h68.266c50.897 0 92.157-41.26 92.157-92.157v0-24.643c24.767-7.928 45.851-16.867 65.937-27.446l-2.213 1.062 16.486 16.486c16.572 16.637 39.501 26.931 64.835 26.931 0.114 0 0.228 0 0.341-0.001h-0.018c0.106 0 0.232 0.001 0.358 0.001 25.333 0 48.262-10.294 64.832-26.928l48.266-48.3c16.637-16.572 26.931-39.501 26.931-64.835 0-0.114 0-0.228-0.001-0.341v0.018c0-0.096 0.001-0.21 0.001-0.324 0-25.333-10.294-48.262-26.928-64.832l-16.421-16.421c9.598-17.993 18.596-39.201 25.752-61.241l0.803-2.86h24.507c0.020 0 0.044 0 0.068 0 50.849 0 92.079-41.182 92.157-92.013v-68.272c0-50.897-41.26-92.157-92.157-92.157h-24.575c-7.939-24.813-16.902-45.943-27.513-66.068l1.061 2.207 17.066-17.066c16.683-16.678 27.003-39.722 27.003-65.175s-10.319-48.497-27.002-65.175l-48.263-48.263c-16.678-16.683-39.722-27.003-65.175-27.003s-48.497 10.319-65.175 27.002l-17.066 17.066c-17.918-9.549-39.047-18.512-61-25.648l-2.861-0.804v-24.541c0-0.020 0-0.044 0-0.068 0-50.897-41.26-92.157-92.157-92.157-0.012 0-0.024 0-0.036 0h0.002zM443.719 85.363v-44.372c0-18.851 15.282-34.132 34.132-34.132v0h68.264c18.851 0 34.132 15.282 34.132 34.132v0 68.264c0 1.058 0 2.082 0 3.14 49.281 9.78 92.928 28.582 131.143 54.74l-1.202-0.777c0.58-0.683 1.16-1.331 1.911-2.048l48.161-48.161c6.176-6.175 14.708-9.993 24.131-9.993s17.955 3.819 24.132 9.994l48.263 48.263c6.175 6.176 9.993 14.708 9.993 24.131s-3.819 17.955-9.994 24.132l-48.229 48.263c-0.683 0.683-1.365 1.297-2.048 1.911 25.32 36.95 44.094 80.512 53.518 127.455l0.377 2.248c0.99 0 2.014 0 3.14 0h68.264c18.851 0 34.132 15.282 34.132 34.132v0 68.264c0 18.851-15.282 34.132-34.132 34.132v0h-68.264c-1.024 0-2.048 0-3.106 0v0c-9.775 49.335-28.603 93.031-54.807 131.276l0.775-1.198 1.434 1.331 48.263 48.331c6.177 6.12 10.001 14.605 10.001 23.983 0 0.040 0 0.080 0 0.121v-0.006c0 0.042 0 0.091 0 0.14 0 9.392-3.824 17.89-9.999 24.024l-48.265 48.265c-6.141 6.177-14.644 10.001-24.040 10.001-0.032 0-0.065 0-0.097 0h0.005c-0.030 0-0.065 0-0.1 0-9.383 0-17.872-3.824-23.995-9.999l-31.404-31.404-16.895-17.066c-0.478-0.444-0.956-0.956-1.365-1.434v0c-36.953 25.296-80.516 44.048-127.457 53.451l-2.245 0.375c0 0.99 0 2.048 0 3.174v68.264c0 18.851-15.282 34.132-34.132 34.132v0h-68.264c-18.851 0-34.132-15.282-34.132-34.132v0-68.264c0-1.024 0-2.082 0-3.174-49.254-9.788-92.876-28.577-131.079-54.708l1.206 0.779-1.468 1.57-16.895 16.861-31.402 31.402c-6.176 6.175-14.708 9.993-24.131 9.993s-17.955-3.819-24.132-9.994l-48.263-48.263c-6.175-6.176-9.993-14.708-9.993-24.131s3.819-17.955 9.994-24.132l48.263-48.297 1.57-1.468c-25.324-36.951-44.108-80.51-53.551-127.451l-0.378-2.252c-1.058 0-2.048 0-3.072 0h-68.264c-18.851 0-34.132-15.282-34.132-34.132v0-68.264c0-18.851 15.282-34.132 34.132-34.132v0h68.264c0.99 0 2.014 0 3.106 0 9.8-49.39 28.663-93.131 54.909-131.412l-0.776 1.197c-0.546-0.478-1.126-1.024-1.741-1.672l-48.161-48.161c-6.175-6.176-9.993-14.708-9.993-24.131s3.819-17.955 9.994-24.132l48.263-48.263c6.176-6.175 14.708-9.993 24.131-9.993s17.955 3.819 24.132 9.994l48.263 48.229c0.58 0.614 1.16 1.229 1.707 1.877 36.954-25.284 80.518-44.025 127.458-53.418l2.245-0.375c0-0.99 0-2.014 0-3.14zM290.124 460.817c0.175 122.459 99.4 221.685 221.843 221.859h0.016c122.467-0.155 221.704-99.392 221.859-221.844v-0.015c-0.116-122.483-99.377-221.743-221.848-221.859h-0.011c-122.467 0.155-221.704 99.392-221.859 221.844v0.015zM349.855 460.817c0.117-89.487 72.638-161.997 162.119-162.094h0.009c89.483 0.097 161.997 72.611 162.094 162.084v0.010c-0.097 89.49-72.607 162.011-162.083 162.128h-0.011c-89.494-0.116-162.011-72.634-162.128-162.117v-0.011z" />
<glyph unicode="&#xe92f;" glyph-name="shield" d="M512.017-51.166c-47.387 11.372-88.754 32.38-123.696 60.95l0.547-0.434c-71.055 50.353-131.8 109.21-182.557 176.064l-1.484 2.038c-76.741 103.818-123.735 233.72-126.281 374.476l-0.009 0.603v197.694c0 0.016 0 0.035 0 0.054 0 5.014 0.901 9.817 2.55 14.257l-0.092-0.283c1.223 15.675 11.104 28.776 24.819 34.611l0.268 0.101 388.015 160.729c4.571 1.929 9.886 3.050 15.462 3.050s10.891-1.121 15.73-3.15l-0.269 0.1c2.016-0.542 3.696-1.124 5.324-1.808l-0.272 0.101 387.708-160.592c13.374-5.626 23.002-17.774 24.962-32.352l0.023-0.21c1.728-4.362 2.731-9.416 2.731-14.705 0-0.002 0-0.004 0-0.007v0-197.694c-3.245-141.288-50.114-271.024-127.596-376.953l1.307 1.874c-111.271-156.189-271.829-238.482-307.19-238.618zM160.455 562.087v-2.116c1.759-120.379 39.806-231.531 103.655-323.404l-1.258 1.913c42.21-58.945 91.503-109.333 147.429-151.371l1.763-1.268c27.696-23.996 61.292-41.963 98.288-51.446l1.685-0.366c28.705 0 158.988 70.722 249.165 204.554 62.097 90.148 100.041 201.163 102.387 320.903l0.009 0.588v181.071l-353.883 146.564-349.241-144.721v-180.559zM436.517 350.263l-106.185 106.083c-7.442 7.417-12.047 17.677-12.047 29.012s4.605 21.595 12.046 29.011l0.001 0.001c7.417 7.442 17.677 12.047 29.012 12.047s21.595-4.605 29.011-12.046l0.001-0.001 77.070-76.968 173.596 173.392c7.417 7.442 17.677 12.047 29.012 12.047s21.595-4.605 29.011-12.046l0.001-0.001c7.391-7.409 11.961-17.634 11.961-28.927s-4.57-21.518-11.962-28.928l0.001 0.001-199.4-199.195c-0.979-1.253-1.951-2.365-2.979-3.423l0.009 0.010c-7.41-7.402-17.644-11.98-28.946-11.98-0.011 0-0.023 0-0.034 0h0.002c-0.030 0-0.065 0-0.101 0-11.37 0-21.658 4.633-29.079 12.114l-0.003 0.003z" />
<glyph unicode="&#xe930;" glyph-name="user-login" d="M504.704 479.535c67.763 0 126.438 24.303 174.391 72.257 47.936 47.945 72.247 106.609 72.247 174.383 0 67.75-24.303 126.422-72.256 174.383-47.953 47.938-106.624 72.242-174.383 72.242-67.776 0-126.438-24.305-174.384-72.25s-72.258-106.617-72.258-174.375c0-67.773 24.312-126.446 72.258-174.391 47.961-47.938 106.633-72.25 174.384-72.25zM372.758 858.12c36.789 36.789 79.944 54.672 131.946 54.672 51.989 0 95.155-17.883 131.951-54.672 36.791-36.797 54.682-79.961 54.682-131.945 0-52-17.89-95.156-54.682-131.953-36.796-36.797-79.962-54.681-131.951-54.681-51.985 0-95.142 17.891-131.946 54.681-36.797 36.789-54.688 79.953-54.688 131.953 0 51.984 17.891 95.148 54.688 131.945zM936.256 185.391c-1.382 19.955-4.177 41.719-8.294 64.704-4.156 23.155-9.51 45.047-15.915 65.054-6.626 20.681-15.616 41.101-26.752 60.672-11.537 20.314-25.101 37.999-40.32 52.557-15.91 15.223-35.396 27.469-57.929 36.395-22.451 8.883-47.334 13.385-73.954 13.385-10.453 0-20.561-4.288-40.085-16.998-12.015-7.838-26.069-16.9-41.758-26.923-13.414-8.546-31.586-16.555-54.029-23.804-21.901-7.087-44.134-10.679-66.086-10.679-21.939 0-44.173 3.593-66.086 10.679-22.423 7.241-40.602 15.249-53.993 23.795-15.539 9.929-29.601 18.991-41.797 26.935-19.508 12.715-29.617 17.003-40.070 17.003-26.625 0-51.5-4.51-73.945-13.397-22.516-8.917-42.008-21.158-57.937-36.399-15.219-14.562-28.781-32.243-40.313-52.548-11.117-19.571-20.117-39.983-26.742-60.681-6.398-20.006-11.75-41.89-15.906-65.045-4.125-22.955-6.914-44.727-8.297-64.725-1.359-19.558-2.047-39.906-2.047-60.471 0-53.453 16.992-96.725 50.5-128.64 33.094-31.492 76.875-47.462 130.133-47.462h493.063c53.239 0 97.024 15.97 130.125 47.462 33.515 31.889 50.509 75.179 50.509 128.649-0.009 20.634-0.704 40.986-2.074 60.484zM846.447 39.735c-21.871-20.813-50.901-30.929-88.759-30.929h-493.055c-37.867 0-66.898 10.116-88.758 30.921-21.445 20.416-31.867 48.282-31.867 85.171 0 19.187 0.633 38.135 1.899 56.32 1.234 17.843 3.758 37.449 7.5 58.274 3.695 20.57 8.399 39.876 13.992 57.353 5.367 16.755 12.687 33.353 21.766 49.335 8.664 15.236 18.633 28.305 29.633 38.835 10.289 9.852 23.258 17.916 38.539 23.962 14.133 5.594 30.016 8.657 47.258 9.118 2.101-1.118 5.844-3.251 11.906-7.202 12.336-8.043 26.554-17.212 42.273-27.251 17.719-11.298 40.547-21.5 67.82-30.306 27.883-9.015 56.32-13.594 84.549-13.594 28.224 0 56.67 4.578 84.535 13.585 27.298 8.823 50.121 19.017 67.861 30.332 16.085 10.278 29.905 19.187 42.24 27.234 6.063 3.942 9.805 6.084 11.908 7.202 17.25-0.461 33.135-3.524 47.275-9.118 15.27-6.046 28.241-14.118 38.528-23.962 11.004-10.522 20.971-23.595 29.636-38.844 9.084-15.974 16.414-32.576 21.773-49.318 5.602-17.502 10.313-36.8 13.999-57.353 3.733-20.868 6.268-40.478 7.501-58.291v-0.013c1.271-18.116 1.911-37.056 1.92-56.299-0.009-36.898-10.428-64.755-31.872-85.163z" />
<glyph unicode="&#xe931;" glyph-name="camera" d="M989.931 738.213c-20.442 21.414-48.67 34.068-80.789 34.068h-161.583v1.946c0 24.335-9.732 47.696-26.283 63.27-16.546 16.548-38.933 26.281-63.266 26.281h-292.017c-25.308 0-47.696-9.734-64.244-26.281s-26.281-38.935-26.281-63.27v-1.946h-160.608c-32.122 0-60.35-12.654-80.791-34.068-20.441-20.441-34.068-49.643-34.068-80.791v-484.745c0-32.124 12.654-60.352 34.068-80.789 20.441-20.442 49.643-34.069 80.791-34.069h794.282c32.119 0 60.348 12.655 80.789 34.069 20.442 20.437 34.069 49.643 34.069 80.789v484.745c0 32.122-12.655 60.35-34.069 80.791zM973.385 172.676h-0.973c0-17.519-6.814-33.097-18.496-44.774-11.678-11.682-27.255-18.496-44.774-18.496h-794.282c-17.521 0-33.095 6.814-44.776 18.496-11.681 11.678-18.494 27.255-18.494 44.774v484.745c0 17.521 6.813 33.095 18.494 44.776s27.255 18.494 44.776 18.494h187.863c14.601 0 26.281 11.68 26.281 26.281v28.228c0 10.707 3.893 20.441 10.707 27.255s16.547 10.707 27.255 10.707h291.044c10.705 0 20.437-3.893 27.251-10.707s10.709-16.547 10.709-27.255v-28.228c0-14.601 11.682-26.281 26.283-26.281h187.861c17.519 0 33.097-6.814 44.774-18.494 11.682-11.68 18.496-27.255 18.496-44.776v-484.745zM512.034 654.498c-66.189 0-126.538-27.255-169.367-70.083-43.802-43.802-70.084-103.177-70.084-169.37 0-66.189 27.255-126.537 70.084-169.37 43.802-43.802 103.178-70.080 169.367-70.080 66.193 0 126.541 27.251 169.37 70.080 43.802 43.806 70.084 103.181 70.084 169.37 0 66.193-27.255 126.541-70.084 169.37s-103.177 70.083-169.37 70.083zM644.416 281.694c-34.069-33.097-80.789-54.511-132.382-54.511-51.588 0-98.31 21.414-132.378 54.511-34.068 34.065-54.51 80.789-54.51 132.378s21.414 98.313 54.51 132.381c34.068 34.068 80.79 54.509 132.378 54.509 51.593 0 98.313-21.414 132.382-54.509 34.069-34.068 54.511-80.793 54.511-132.381 0.973-51.588-20.442-98.313-54.511-132.378zM858.53 560.085c26.342 0 47.693 21.354 47.693 47.696s-21.35 47.696-47.693 47.696c-26.342 0-47.697-21.354-47.697-47.696s21.355-47.696 47.697-47.696z" />
</font>
</defs>
</svg>
